<?xml version="1.0" encoding="UTF-8" standalone="no"?>
<!-- Created with Inkscape (http://www.inkscape.org/) -->

<svg
   xmlns:dc="http://purl.org/dc/elements/1.1/"
   xmlns:cc="http://creativecommons.org/ns#"
   xmlns:rdf="http://www.w3.org/1999/02/22-rdf-syntax-ns#"
   xmlns:svg="http://www.w3.org/2000/svg"
   xmlns="http://www.w3.org/2000/svg"
   xmlns:sodipodi="http://sodipodi.sourceforge.net/DTD/sodipodi-0.dtd"
   xmlns:inkscape="http://www.inkscape.org/namespaces/inkscape"
   id="svg2"
   version="1.1"
   inkscape:version="0.48.4 r9939"
   width="691.25"
   height="136.25"
   xml:space="preserve"
   sodipodi:docname="permissoes.eps"><metadata
     id="metadata8"><rdf:RDF><cc:Work
         rdf:about=""><dc:format>image/svg+xml</dc:format><dc:type
           rdf:resource="http://purl.org/dc/dcmitype/StillImage" /><dc:title></dc:title></cc:Work></rdf:RDF></metadata><defs
     id="defs6" /><sodipodi:namedview
     pagecolor="#ffffff"
     bordercolor="#666666"
     borderopacity="1"
     objecttolerance="10"
     gridtolerance="10"
     guidetolerance="10"
     inkscape:pageopacity="0"
     inkscape:pageshadow="2"
     inkscape:window-width="1301"
     inkscape:window-height="744"
     id="namedview4"
     showgrid="false"
     inkscape:zoom="1.4853078"
     inkscape:cx="354.49883"
     inkscape:cy="44.164744"
     inkscape:window-x="65"
     inkscape:window-y="24"
     inkscape:window-maximized="1"
     inkscape:current-layer="g10" /><g
     id="g10"
     inkscape:groupmode="layer"
     inkscape:label="ink_ext_XXXXXX"
     transform="matrix(1.25,0,0,-1.25,0,136.25)"><g
       id="g12"
       transform="scale(0.1,0.1)"><path
         d="m 280,810 0,-675"
         style="fill:none;stroke:#000000;stroke-opacity:1;stroke-width:4.5;stroke-linecap:butt;stroke-linejoin:miter;stroke-miterlimit:10;stroke-dasharray:none"
         id="path14" /><path
         d="m 1090,810 0,-315 315,0"
         style="fill:none;stroke:#000000;stroke-opacity:1;stroke-width:4.5;stroke-linecap:butt;stroke-linejoin:miter;stroke-miterlimit:10;stroke-dasharray:none"
         id="path16" /><path
         d="m 685,810 0,-540 90,0"
         style="fill:none;stroke:#000000;stroke-opacity:1;stroke-width:4.5;stroke-linecap:butt;stroke-linejoin:miter;stroke-miterlimit:10;stroke-dasharray:none"
         id="path18" /><path
         d="m 568,1080 0,0 c -34.793,0 -63,-28.21 -63,-63 l 0,-144 c 0,-34.793 28.207,-63 63,-63 l 234,0 c 34.793,0 63,28.207 63,63 l 0,144 c 0,34.79 -28.207,63 -63,63"
         style="fill:#dddddd;fill-opacity:1;fill-rule:evenodd;stroke:none"
         id="path20" /><path
         d="m 568,1080 0,0 c -34.793,0 -63,-28.21 -63,-63 l 0,-144 c 0,-34.793 28.207,-63 63,-63 l 234,0 c 34.793,0 63,28.207 63,63 l 0,144 c 0,34.79 -28.207,63 -63,63 l -234,0 z"
         style="fill:none;stroke:#000000;stroke-opacity:1;stroke-width:4.5;stroke-linecap:butt;stroke-linejoin:miter;stroke-miterlimit:10;stroke-dasharray:none"
         id="path22" /><path
         d="m 973,1080 0,0 c -34.793,0 -63,-28.21 -63,-63 l 0,-144 c 0,-34.793 28.207,-63 63,-63 l 234,0 c 34.79,0 63,28.207 63,63 l 0,144 c 0,34.79 -28.21,63 -63,63"
         style="fill:#dddddd;fill-opacity:1;fill-rule:evenodd;stroke:none"
         id="path24" /><path
         d="m 973,1080 0,0 c -34.793,0 -63,-28.21 -63,-63 l 0,-144 c 0,-34.793 28.207,-63 63,-63 l 234,0 c 34.79,0 63,28.207 63,63 l 0,144 c 0,34.79 -28.21,63 -63,63 l -234,0 z"
         style="fill:none;stroke:#000000;stroke-opacity:1;stroke-width:4.5;stroke-linecap:butt;stroke-linejoin:miter;stroke-miterlimit:10;stroke-dasharray:none"
         id="path26" /><path
         d="m 73,1080 0,0 c -34.793,0 -63,-28.21 -63,-63 l 0,-144 c 0,-34.793 28.207,-63 63,-63 l 324,0 c 34.793,0 63,28.207 63,63 l 0,144 c 0,34.79 -28.207,63 -63,63"
         style="fill:#dddddd;fill-opacity:1;fill-rule:evenodd;stroke:none"
         id="path28" /><path
         d="m 73,1080 0,0 c -34.793,0 -63,-28.21 -63,-63 l 0,-144 c 0,-34.793 28.207,-63 63,-63 l 324,0 c 34.793,0 63,28.207 63,63 l 0,144 c 0,34.79 -28.207,63 -63,63 l -324,0 z"
         style="fill:none;stroke:#000000;stroke-opacity:1;stroke-width:4.5;stroke-linecap:butt;stroke-linejoin:miter;stroke-miterlimit:10;stroke-dasharray:none"
         id="path30" /><g
         id="g32"
         transform="scale(10,10)"><text
           transform="matrix(1,0,0,-1,10,0)"
           id="text34"><tspan
             style="fill:#000000;fill-opacity:1;fill-rule:nonzero;stroke:none;font-family:Helvetica;font-variant:normal;font-weight:normal;font-size:9;writing-mode:lr;-inkscape-font-specification:Helvetica"
             x="0 6.003 11.007 14.004 21.501 23.499 27.999 32.499 37.503 42.507 47.007 49.509 54.513 59.517 62.019 67.023 71.523 76.527 81.531 84.528 86.526"
             y="0"
             sodipodi:role="line"
             id="tspan36">Permissões do usuário</tspan><tspan
             style="fill:#000000;fill-opacity:1;fill-rule:nonzero;stroke:none;font-family:Helvetica;font-variant:normal;font-weight:normal;font-size:9;writing-mode:lr;-inkscape-font-specification:Helvetica"
             x="76.5 82.503 87.507 90.504 98.001 99.999 104.499 108.999 114.003 119.007 123.507 126.009 131.013 136.017 138.519 143.523 146.52 151.524 156.528"
             y="-22.5"
             sodipodi:role="line"
             id="tspan38">Permissões do grupo</tspan><tspan
             style="fill:#000000;fill-opacity:1;fill-rule:nonzero;stroke:none;font-family:Helvetica;font-variant:normal;font-weight:normal;font-size:9;writing-mode:lr;-inkscape-font-specification:Helvetica"
             x="139.5 145.503 150.507 153.504 161.001 162.999 167.499 171.999 177.003 182.007 186.507 189.009 194.013 199.017 201.519 206.523 211.527 214.029 217.026 222.03"
             y="-45"
             sodipodi:role="line"
             id="tspan40">Permissões de outros</tspan></text>
</g><g
         id="g42"
         transform="scale(10,10)"><text
           transform="matrix(1,0,0,-1,11.2609,90)"
           id="text44"><tspan
             style="fill:#000000;fill-opacity:1;fill-rule:nonzero;stroke:none;font-family:Courier New;font-variant:normal;font-weight:bold;font-size:12.6;writing-mode:lr;-inkscape-font-specification:Courier-Bold"
             x="0 7.56 15.12 22.68 88.55973 96.11973 103.67973 48.0598 55.6198 63.1798 133.739044 141.299044 148.859044 156.419044 163.979044 171.539044 179.099044 216.899044 224.459044 232.019044 239.579044 247.139044 254.699044 292.499044 300.059044 307.619044 315.179044 322.739044 330.299044 337.859044 345.419044 352.979044 360.539044 368.099044 375.659044 383.219044 390.779044 398.339044 405.899044 413.459044 421.019044 428.579044 436.139044 443.699044 451.259044 458.819044 466.379044 473.939044 481.499044 489.059044 496.619044"
             y="0"
             sodipodi:role="line"
             id="tspan46">-rw-r--r--1 ambj users 43 Mar 31 12:58 exemplo1.txt</tspan></text>
</g></g></g></svg>