<svg height="256" width="256" xmlns="http://www.w3.org/2000/svg"> 
<path d="M 237 207 L237 208 L236 209 L236 210 L236 211 L236 212 L235 213 L234 213 L233 213 L232 213 L231 213 L230 213 L229 213 L228 213 L227 213 L226 213 L225 213 L224 213 L223 212 L222 212 L221 212 L220 212 L219 212 L218 212 L217 212 L216 211 L215 211 L214 211 L213 211 L212 211 L211 211 L210 210 L209 210 L208 210 L207 210 L206 210 L205 210 L204 210 L203 210 L202 211 L202 212 L203 213 L203 214 L204 214 L205 214 L206 215 L207 215 L208 215 L209 215 L210 215 L211 215 L212 215 L213 216 L214 216 L215 216 L216 216 L217 216 L218 216 L219 217 L220 217 L221 217 L222 217 L223 217 L224 217 L225 217 L226 217 L227 217 L228 217 L229 217 L230 218 L231 218 L232 218 L233 218 L234 219 L234 220 L234 221 L234 222 L234 223 L235 224 L236 224 L237 224 L238 223 L238 222 L238 221 L238 220 L239 219 L239 218 L239 217 L239 216 L240 215 L240 214 L240 213 L241 212 L241 211 L241 210 L241 209 L240 208 L240 207 L239 207 L238 207 Z" fill="#cccccc" stroke="black" stroke-width="1" />
<path d="M 30 200 L29 201 L28 201 L27 202 L26 203 L25 204 L25 205 L24 206 L23 207 L22 208 L22 209 L22 210 L23 211 L23 212 L23 213 L24 214 L24 215 L25 216 L26 217 L26 218 L27 219 L28 219 L29 220 L30 220 L31 220 L32 220 L33 220 L34 220 L35 220 L36 220 L37 220 L38 220 L39 220 L40 220 L41 220 L42 220 L43 220 L44 219 L44 218 L44 217 L44 216 L44 215 L44 214 L44 213 L44 212 L44 211 L44 210 L44 209 L44 208 L44 207 L43 206 L43 205 L42 204 L41 203 L41 202 L40 201 L39 201 L38 200 L37 200 L36 200 L35 200 L34 200 L33 200 L32 200 L31 200 Z" fill="#cccccc" stroke="black" stroke-width="1" />
<path d="M 99 192 L98 193 L98 194 L98 195 L98 196 L99 197 L100 198 L100 199 L101 200 L101 201 L102 202 L102 203 L102 204 L102 205 L103 206 L103 207 L103 208 L103 209 L103 210 L103 211 L103 212 L103 213 L104 214 L104 215 L104 216 L104 217 L105 218 L105 219 L106 220 L106 221 L106 222 L107 223 L107 224 L108 225 L108 226 L109 227 L109 228 L110 229 L110 230 L109 231 L108 232 L107 232 L106 233 L105 234 L104 235 L104 236 L105 237 L106 237 L107 237 L108 237 L109 237 L110 236 L111 236 L112 235 L113 234 L114 234 L115 234 L116 233 L117 233 L118 232 L119 232 L120 232 L121 232 L122 231 L123 231 L124 230 L125 229 L125 228 L125 227 L124 226 L123 226 L122 226 L121 226 L120 227 L119 227 L118 228 L117 228 L116 228 L115 228 L114 227 L113 226 L113 225 L112 224 L112 223 L111 222 L111 221 L111 220 L110 219 L110 218 L109 217 L109 216 L109 215 L108 214 L108 213 L108 212 L108 211 L108 210 L107 209 L107 208 L107 207 L107 206 L107 205 L107 204 L107 203 L107 202 L106 201 L106 200 L106 199 L105 198 L105 197 L104 196 L104 195 L103 194 L102 193 L101 192 L100 192 Z" fill="#cccccc" stroke="black" stroke-width="1" />
<path d="M 174 188 L173 189 L173 190 L173 191 L172 192 L171 193 L171 194 L170 195 L169 196 L169 197 L169 198 L169 199 L169 200 L169 201 L169 202 L169 203 L169 204 L169 205 L169 206 L169 207 L170 208 L171 209 L172 209 L173 209 L174 209 L175 209 L176 209 L177 209 L178 209 L179 208 L180 208 L181 208 L182 208 L183 207 L184 207 L185 206 L186 205 L187 204 L187 203 L187 202 L187 201 L187 200 L187 199 L187 198 L187 197 L186 196 L186 195 L185 194 L184 193 L183 192 L182 191 L181 191 L180 191 L179 190 L178 189 L177 189 L176 188 L175 188 Z" fill="#cccccc" stroke="black" stroke-width="1" />
<path d="M 37 165 L36 166 L36 167 L36 168 L36 169 L36 170 L36 171 L36 172 L36 173 L35 174 L34 174 L33 174 L32 175 L31 175 L30 175 L29 175 L28 175 L27 175 L26 175 L25 175 L24 175 L23 175 L22 176 L21 176 L20 176 L19 176 L18 176 L17 176 L16 176 L15 176 L14 177 L13 177 L12 177 L11 178 L11 179 L11 180 L12 181 L13 181 L14 181 L15 181 L16 181 L17 181 L18 181 L19 180 L20 180 L21 180 L22 180 L23 180 L24 180 L25 180 L26 180 L27 180 L28 180 L29 179 L30 179 L31 179 L32 179 L33 179 L34 179 L35 179 L36 178 L37 178 L38 178 L39 179 L40 180 L41 180 L42 180 L43 180 L44 180 L44 179 L45 178 L45 177 L44 176 L43 175 L43 174 L42 173 L41 172 L40 171 L40 170 L40 169 L40 168 L40 167 L40 166 L39 165 L38 165 Z" fill="#cccccc" stroke="black" stroke-width="1" />
<path d="M 119 150 L118 151 L117 151 L116 151 L115 151 L114 152 L114 153 L114 154 L113 155 L113 156 L112 157 L112 158 L112 159 L111 160 L111 161 L111 162 L111 163 L111 164 L112 165 L112 166 L113 167 L114 167 L115 168 L116 168 L117 168 L118 168 L119 168 L120 168 L121 168 L122 168 L123 168 L124 168 L125 168 L126 168 L127 167 L128 167 L129 167 L130 166 L131 165 L131 164 L131 163 L131 162 L131 161 L131 160 L131 159 L131 158 L131 157 L131 156 L130 155 L129 154 L128 153 L127 153 L126 152 L125 151 L124 150 L123 150 L122 150 L121 150 L120 150 Z" fill="#cccccc" stroke="black" stroke-width="1" />
<path d="M 57 142 L56 143 L55 143 L54 144 L53 145 L53 146 L52 147 L51 148 L51 149 L51 150 L50 151 L50 152 L50 153 L51 154 L51 155 L52 156 L52 157 L52 158 L53 159 L53 160 L54 161 L54 162 L55 163 L56 164 L57 165 L58 166 L59 167 L60 167 L61 168 L62 169 L63 170 L64 170 L65 171 L66 171 L67 171 L68 171 L69 171 L70 171 L71 171 L72 170 L73 170 L73 169 L74 168 L74 167 L74 166 L74 165 L74 164 L74 163 L74 162 L74 161 L74 160 L74 159 L74 158 L73 157 L73 156 L73 155 L73 154 L72 153 L72 152 L71 151 L71 150 L70 149 L69 148 L68 147 L67 146 L66 145 L65 144 L64 143 L63 142 L62 142 L61 142 L60 142 L59 142 L58 142 Z" fill="#cccccc" stroke="black" stroke-width="1" />
<path d="M 168 135 L167 136 L166 137 L166 138 L166 139 L166 140 L166 141 L166 142 L165 143 L165 144 L165 145 L164 146 L163 147 L163 148 L162 149 L162 150 L161 151 L161 152 L161 153 L161 154 L162 155 L163 155 L164 155 L165 154 L166 153 L166 152 L167 151 L167 150 L168 149 L168 148 L169 147 L169 146 L170 145 L171 145 L172 145 L173 145 L174 145 L175 146 L176 146 L177 146 L178 146 L179 146 L180 147 L181 147 L182 147 L183 147 L184 147 L185 147 L186 148 L187 148 L188 148 L189 149 L190 149 L191 149 L192 149 L193 150 L194 150 L195 150 L196 151 L197 151 L198 152 L199 152 L200 153 L201 153 L202 153 L203 154 L204 155 L205 155 L206 155 L207 156 L208 156 L209 156 L210 157 L211 157 L212 157 L213 157 L214 158 L215 158 L216 158 L217 159 L218 159 L219 159 L220 159 L221 158 L221 157 L221 156 L221 155 L220 155 L219 154 L218 154 L217 153 L216 153 L215 153 L214 153 L213 152 L212 152 L211 152 L210 152 L209 151 L208 151 L207 151 L206 150 L205 149 L204 149 L203 148 L202 148 L201 147 L200 147 L199 147 L198 146 L197 146 L196 146 L195 145 L194 145 L193 144 L192 144 L191 144 L190 144 L189 144 L188 143 L187 143 L186 143 L185 143 L184 142 L183 142 L182 142 L181 142 L180 142 L179 142 L178 142 L177 141 L176 141 L175 141 L174 141 L173 140 L172 140 L171 139 L171 138 L171 137 L170 136 L169 135 Z" fill="#cccccc" stroke="black" stroke-width="1" />
<path d="M 130 104 L129 105 L128 106 L128 107 L128 108 L127 109 L126 110 L125 111 L124 112 L123 113 L122 113 L121 114 L120 114 L119 115 L118 115 L117 116 L116 116 L115 117 L114 117 L113 118 L112 118 L111 119 L110 120 L109 120 L108 121 L107 122 L106 123 L105 124 L104 125 L103 125 L102 126 L101 127 L100 126 L99 125 L98 124 L97 124 L96 124 L95 125 L95 126 L95 127 L95 128 L96 129 L97 130 L97 131 L98 132 L98 133 L98 134 L99 135 L99 136 L100 137 L101 137 L102 137 L103 137 L104 136 L104 135 L104 134 L103 133 L103 132 L103 131 L104 130 L105 130 L106 129 L107 129 L108 128 L109 127 L110 126 L111 125 L112 124 L113 123 L114 123 L115 122 L116 121 L117 121 L118 120 L119 120 L120 119 L121 119 L122 119 L123 118 L124 118 L125 117 L126 116 L127 116 L128 115 L129 114 L130 113 L131 112 L132 111 L132 110 L133 109 L133 108 L133 107 L133 106 L133 105 L132 104 L131 104 Z" fill="#cccccc" stroke="black" stroke-width="1" />
<path d="M 182 86 L181 87 L180 87 L179 88 L178 89 L177 90 L176 91 L175 92 L175 93 L174 94 L173 95 L172 96 L172 97 L171 98 L170 99 L170 100 L169 101 L169 102 L168 103 L168 104 L168 105 L167 106 L167 107 L167 108 L167 109 L167 110 L167 111 L168 112 L168 113 L169 114 L170 115 L171 116 L172 116 L173 116 L174 116 L175 116 L176 116 L177 116 L178 116 L179 116 L180 116 L181 116 L182 116 L183 116 L184 115 L185 115 L186 114 L187 114 L188 113 L189 112 L190 112 L191 111 L192 110 L193 110 L194 109 L194 108 L195 107 L195 106 L196 105 L196 104 L196 103 L196 102 L196 101 L196 100 L195 99 L195 98 L194 97 L193 96 L192 95 L191 94 L190 94 L189 93 L188 92 L187 91 L186 90 L186 89 L186 88 L186 87 L185 86 L184 86 L183 86 Z" fill="#cccccc" stroke="black" stroke-width="1" />
<path d="M 17 76 L16 77 L15 77 L15 78 L15 79 L15 80 L16 81 L17 81 L18 81 L19 81 L20 81 L21 82 L20 83 L20 84 L20 85 L20 86 L20 87 L20 88 L20 89 L20 90 L20 91 L20 92 L20 93 L20 94 L20 95 L20 96 L20 97 L20 98 L20 99 L20 100 L20 101 L20 102 L20 103 L20 104 L20 105 L20 106 L20 107 L20 108 L20 109 L20 110 L20 111 L20 112 L19 113 L19 114 L19 115 L19 116 L19 117 L18 118 L18 119 L18 120 L18 121 L17 122 L17 123 L17 124 L17 125 L16 126 L16 127 L16 128 L16 129 L17 130 L18 131 L19 131 L20 130 L21 129 L21 128 L21 127 L21 126 L22 125 L22 124 L22 123 L22 122 L22 121 L23 120 L23 119 L23 118 L23 117 L24 116 L24 115 L24 114 L24 113 L24 112 L24 111 L24 110 L24 109 L24 108 L24 107 L24 106 L24 105 L24 104 L24 103 L24 102 L24 101 L24 100 L24 99 L24 98 L24 97 L24 96 L24 95 L24 94 L25 93 L25 92 L25 91 L25 90 L25 89 L25 88 L25 87 L25 86 L25 85 L25 84 L25 83 L25 82 L26 81 L27 80 L28 80 L28 79 L28 78 L28 77 L27 77 L26 76 L25 76 L24 76 L23 76 L22 76 L21 76 L20 76 L19 76 L18 76 Z" fill="#cccccc" stroke="black" stroke-width="1" />
<path d="M 79 73 L78 74 L77 74 L77 75 L76 76 L76 77 L75 78 L74 79 L73 80 L72 81 L71 82 L71 83 L70 84 L69 85 L69 86 L68 87 L68 88 L68 89 L68 90 L69 91 L70 92 L71 92 L72 92 L73 92 L74 92 L75 92 L76 92 L77 92 L78 92 L79 92 L80 92 L81 92 L82 92 L83 92 L84 92 L85 92 L86 91 L87 91 L88 91 L89 91 L90 91 L91 90 L92 90 L92 89 L92 88 L92 87 L92 86 L92 85 L92 84 L92 83 L92 82 L92 81 L92 80 L91 79 L90 78 L89 77 L88 76 L87 76 L86 75 L85 75 L84 75 L83 74 L82 74 L81 73 L80 73 Z" fill="#cccccc" stroke="black" stroke-width="1" />
<path d="M 218 57 L217 58 L217 59 L217 60 L218 61 L219 61 L220 62 L220 63 L220 64 L220 65 L220 66 L220 67 L220 68 L220 69 L220 70 L220 71 L220 72 L220 73 L220 74 L220 75 L220 76 L220 77 L220 78 L220 79 L220 80 L220 81 L220 82 L220 83 L220 84 L220 85 L219 86 L219 87 L219 88 L219 89 L219 90 L219 91 L219 92 L218 93 L218 94 L218 95 L218 96 L218 97 L218 98 L217 99 L217 100 L217 101 L217 102 L217 103 L217 104 L217 105 L217 106 L217 107 L217 108 L217 109 L218 110 L219 111 L220 111 L221 110 L222 109 L222 108 L222 107 L222 106 L222 105 L222 104 L222 103 L222 102 L222 101 L222 100 L222 99 L222 98 L222 97 L223 96 L223 95 L223 94 L223 93 L223 92 L223 91 L224 90 L224 89 L224 88 L224 87 L224 86 L224 85 L224 84 L224 83 L224 82 L224 81 L224 80 L224 79 L224 78 L224 77 L224 76 L224 75 L224 74 L224 73 L224 72 L224 71 L224 70 L224 69 L224 68 L224 67 L224 66 L225 65 L225 64 L225 63 L226 62 L227 62 L228 62 L229 61 L230 61 L230 60 L230 59 L230 58 L229 58 L228 57 L227 57 L226 57 L225 57 L224 57 L223 57 L222 57 L221 57 L220 57 L219 57 Z" fill="#cccccc" stroke="black" stroke-width="1" />
<path d="M 104 52 L103 53 L102 54 L101 55 L100 56 L99 57 L98 57 L97 58 L96 58 L95 59 L94 59 L94 60 L94 61 L94 62 L95 63 L96 63 L97 63 L98 62 L99 62 L100 62 L101 61 L102 61 L103 61 L104 62 L105 62 L106 63 L107 64 L108 65 L109 66 L109 67 L110 68 L111 69 L112 70 L113 71 L114 72 L114 73 L115 74 L116 75 L116 76 L117 77 L118 78 L119 79 L120 80 L121 80 L122 81 L123 81 L124 80 L125 80 L125 79 L125 78 L125 77 L124 76 L123 76 L122 75 L121 74 L120 73 L119 72 L119 71 L118 70 L117 69 L116 68 L115 67 L115 66 L114 65 L113 64 L112 63 L111 62 L110 61 L110 60 L109 59 L108 58 L107 58 L106 57 L107 56 L107 55 L107 54 L107 53 L106 52 L105 52 Z" fill="#cccccc" stroke="black" stroke-width="1" />
<path d="M 119 29 L118 30 L117 30 L116 30 L115 31 L114 31 L113 32 L112 33 L111 34 L110 35 L110 36 L110 37 L110 38 L110 39 L110 40 L110 41 L110 42 L111 43 L111 44 L112 45 L113 46 L114 47 L115 47 L116 48 L117 48 L118 48 L119 48 L120 48 L121 48 L122 48 L123 48 L124 47 L125 47 L126 46 L127 46 L128 45 L129 44 L130 43 L131 43 L131 42 L132 41 L132 40 L132 39 L132 38 L132 37 L132 36 L132 35 L131 34 L131 33 L130 32 L129 31 L128 31 L127 30 L126 30 L125 30 L124 29 L123 29 L122 29 L121 29 L120 29 Z" fill="#cccccc" stroke="black" stroke-width="1" />
<path d="M 162 27 L161 28 L160 28 L160 29 L160 30 L160 31 L161 32 L160 33 L159 34 L158 35 L157 36 L157 37 L156 38 L155 39 L154 40 L154 41 L153 42 L152 43 L151 44 L150 45 L149 46 L148 47 L147 48 L146 49 L146 50 L145 51 L145 52 L144 53 L143 54 L143 55 L142 56 L142 57 L141 58 L141 59 L140 60 L140 61 L140 62 L140 63 L141 64 L142 64 L143 64 L144 63 L145 62 L145 61 L146 60 L146 59 L147 58 L147 57 L148 56 L148 55 L149 54 L149 53 L150 52 L151 51 L152 50 L153 49 L154 48 L154 47 L155 46 L156 45 L157 44 L158 43 L159 42 L160 41 L160 40 L161 39 L162 38 L163 37 L164 36 L164 35 L165 34 L166 35 L167 35 L168 36 L169 36 L170 37 L171 38 L172 38 L173 39 L174 39 L175 39 L176 38 L176 37 L176 36 L176 35 L175 34 L174 34 L173 33 L172 33 L171 32 L170 32 L169 31 L168 30 L167 30 L166 29 L165 29 L164 28 L163 27 Z" fill="#cccccc" stroke="black" stroke-width="1" />
<path d="M 37 21 L36 22 L35 23 L34 24 L34 25 L33 26 L33 27 L33 28 L33 29 L33 30 L32 31 L32 32 L32 33 L33 34 L33 35 L34 36 L35 37 L35 38 L36 39 L37 40 L37 41 L38 42 L39 43 L40 43 L41 44 L42 44 L43 44 L44 44 L45 44 L46 44 L47 44 L48 44 L49 44 L50 43 L51 42 L51 41 L52 40 L52 39 L53 38 L53 37 L53 36 L53 35 L53 34 L53 33 L53 32 L53 31 L52 30 L52 29 L51 28 L51 27 L50 26 L49 26 L48 25 L47 25 L46 24 L45 23 L44 23 L43 22 L42 22 L41 21 L40 21 L39 21 L38 21 Z" fill="#cccccc" stroke="black" stroke-width="1" />
<path d="M 211 2 L210 3 L209 3 L208 4 L207 5 L206 6 L206 7 L206 8 L206 9 L206 10 L206 11 L206 12 L206 13 L206 14 L207 15 L207 16 L208 17 L208 18 L208 19 L209 20 L209 21 L210 22 L210 23 L211 24 L211 25 L211 26 L212 27 L212 28 L213 29 L214 30 L215 31 L215 32 L216 33 L217 34 L218 35 L219 35 L220 35 L221 34 L222 34 L223 33 L223 32 L224 31 L225 30 L225 29 L226 28 L227 27 L228 26 L229 25 L229 24 L230 23 L231 22 L231 21 L232 20 L232 19 L233 18 L233 17 L233 16 L233 15 L233 14 L232 13 L231 12 L231 11 L230 10 L229 9 L228 8 L227 7 L226 6 L225 6 L224 6 L223 5 L222 5 L221 4 L220 4 L219 4 L218 3 L217 3 L216 3 L215 3 L214 3 L213 2 L212 2 Z" fill="#cccccc" stroke="black" stroke-width="1" />
</svg>
