<?xml version="1.0" encoding="UTF-8" standalone="no"?>
<!-- Generator: Adobe Illustrator 12.0.1, SVG Export Plug-In . SVG Version: 6.00 Build 51448)  -->

<svg
   xmlns:dc="http://purl.org/dc/elements/1.1/"
   xmlns:cc="http://creativecommons.org/ns#"
   xmlns:rdf="http://www.w3.org/1999/02/22-rdf-syntax-ns#"
   xmlns:svg="http://www.w3.org/2000/svg"
   xmlns="http://www.w3.org/2000/svg"
   xmlns:sodipodi="http://sodipodi.sourceforge.net/DTD/sodipodi-0.dtd"
   xmlns:inkscape="http://www.inkscape.org/namespaces/inkscape"
   version="1.0"
   id="Layer_1"
   width="14"
   height="14"
   viewBox="0 0 14 14"
   style="overflow:visible"
   xml:space="preserve"
   inkscape:version="0.48.3.1 r9886"
   sodipodi:docname="6.svg"><metadata
   id="metadata3419"><rdf:RDF><cc:Work
       rdf:about=""><dc:format>image/svg+xml</dc:format><dc:type
         rdf:resource="http://purl.org/dc/dcmitype/StillImage" /></cc:Work></rdf:RDF></metadata><defs
   id="defs3417" /><sodipodi:namedview
   pagecolor="#ffffff"
   bordercolor="#666666"
   borderopacity="1"
   objecttolerance="10"
   gridtolerance="10"
   guidetolerance="10"
   inkscape:pageopacity="0"
   inkscape:pageshadow="2"
   inkscape:window-width="1231"
   inkscape:window-height="696"
   id="namedview3415"
   showgrid="false"
   fit-margin-top="0"
   fit-margin-left="0"
   fit-margin-right="0"
   fit-margin-bottom="0"
   inkscape:zoom="7.1515152"
   inkscape:cx="16.5"
   inkscape:cy="16.5"
   inkscape:window-x="49"
   inkscape:window-y="24"
   inkscape:window-maximized="1"
   inkscape:current-layer="Layer_1" />

<g
   id="g3421"
   transform="scale(0.42424242,0.42424242)"><circle
     id="circle3407"
     r="16"
     cy="16.5"
     cx="16.5"
     style="stroke:#000000"
     d="m 32.5,16.5 c 0,8.836556 -7.163444,16 -16,16 -8.836556,0 -16,-7.163444 -16,-16 0,-8.836556 7.163444,-16 16,-16 8.836556,0 16,7.163444 16,16 z"
     sodipodi:cx="16.5"
     sodipodi:cy="16.5"
     sodipodi:rx="16"
     sodipodi:ry="16" /><g
     id="g3409">
	<g
   id="g3411"
   style="enable-background:new">
		<path
   id="path3413"
   d="m 19.106,10.673 c -0.112,-1.12 -0.84,-1.904 -2.296,-1.904 -2.548,0 -3.136,2.912 -3.276,5.488 l 0.056,0.056 c 0.532,-0.728 1.512,-1.651 3.724,-1.651 4.116,0 6.077,3.164 6.077,6.131 0,4.34 -2.66,7.252 -6.497,7.252 -6.02,0 -7.196,-5.039 -7.196,-9.996 0,-3.78 0.504,-10.416 7.392,-10.416 0.812,0 3.08,0.308 4.061,1.288 1.092,1.063 1.483,1.652 1.848,3.752 h -3.893 z m -2.492,5.124 c -1.484,0 -2.996,0.924 -2.996,3.416 0,2.156 1.232,3.697 3.108,3.697 1.428,0 2.745,-1.094 2.745,-3.781 0,-2.52 -1.625,-3.332 -2.857,-3.332 z"
   style="fill:#ffffff"
   inkscape:connector-curvature="0" />
	</g>
</g></g>
</svg>