<?xml version="1.0" encoding="UTF-8" standalone="no"?>
<!-- Created with Inkscape (http://www.inkscape.org/) -->

<svg
   xmlns:dc="http://purl.org/dc/elements/1.1/"
   xmlns:cc="http://creativecommons.org/ns#"
   xmlns:rdf="http://www.w3.org/1999/02/22-rdf-syntax-ns#"
   xmlns:svg="http://www.w3.org/2000/svg"
   xmlns="http://www.w3.org/2000/svg"
   xmlns:sodipodi="http://sodipodi.sourceforge.net/DTD/sodipodi-0.dtd"
   xmlns:inkscape="http://www.inkscape.org/namespaces/inkscape"
   width="170"
   height="170"
   id="svg2"
   version="1.1"
   inkscape:version="0.92.3 (2405546, 2018-03-11)"
   sodipodi:docname="logo.svg">
  <defs
     id="defs4" />
  <sodipodi:namedview
     id="base"
     pagecolor="#ffffff"
     bordercolor="#666666"
     borderopacity="1.0"
     inkscape:pageopacity="0.0"
     inkscape:pageshadow="2"
     inkscape:zoom="2.8"
     inkscape:cx="20.982307"
     inkscape:cy="87.072758"
     inkscape:document-units="px"
     inkscape:current-layer="g4635"
     preserveAspectRatio="xMinYMin meet"
     viewBox="0 0 150 170"
     showgrid="false"
     fit-margin-top="0"
     fit-margin-left="0"
     fit-margin-right="0"
     fit-margin-bottom="0"
     inkscape:window-width="1869"
     inkscape:window-height="1025"
     inkscape:window-x="51"
     inkscape:window-y="27"
     inkscape:window-maximized="1" />
  <metadata
     id="metadata7">
    <rdf:RDF>
      <cc:Work
         rdf:about="">
        <dc:format>image/svg+xml</dc:format>
        <dc:type
           rdf:resource="http://purl.org/dc/dcmitype/StillImage" />
        <dc:title></dc:title>
      </cc:Work>
    </rdf:RDF>
  </metadata>
  <g
     inkscape:label="Camada 1"
     inkscape:groupmode="layer"
     id="layer1"
     transform="translate(-190.12816,-560.38891)">
    <g
       id="g4635"
       transform="matrix(0.15359925,-0.2673826,-0.2673826,-0.15359925,340.68484,814.11812)"
       style="fill:#ffffff;fill-opacity:1;stroke:#ffffff;stroke-opacity:1">
      <path
         id="path3026"
         style="fill:#000000;fill-opacity:1;fill-rule:nonzero;stroke:#000000;stroke-width:1.60139072;stroke-linecap:butt;stroke-linejoin:miter;stroke-miterlimit:10;stroke-dasharray:none;stroke-opacity:1"
         d="m 398.90237,423.19851 c 2.50694,-43.50333 -28.35602,-76.73652 -68.93542,-74.22957 -40.57941,2.50695 -75.50682,39.80459 -78.01376,83.30791 -2.50695,43.50332 28.35601,76.73652 68.93541,74.22957 40.5794,-2.50694 75.50682,-39.8046 78.01377,-83.30791 z"
         inkscape:connector-curvature="0" />
      <path
         inkscape:connector-curvature="0"
         d="m 550.44374,413.83646 c 1.41016,-24.47061 -15.95024,-43.16427 -38.77618,-41.75411 -22.82591,1.41016 -42.47259,22.39007 -43.88274,46.86068 -1.41016,24.47062 15.95027,43.16427 38.77617,41.75412 22.82594,-1.41016 42.47259,-22.39007 43.88275,-46.86069 z"
         style="fill:#000000;fill-opacity:1;fill-rule:nonzero;stroke:#000000;stroke-width:1.60139072;stroke-linecap:butt;stroke-linejoin:miter;stroke-miterlimit:10;stroke-dasharray:none;stroke-opacity:1"
         id="path3048" />
      <path
         id="path3066"
         style="fill:#000000;fill-opacity:1;fill-rule:nonzero;stroke:#000000;stroke-width:1.07158542;stroke-opacity:1"
         d="m 396.02415,396.53132 c 4.9048,17.03512 3.80519,36.11679 -3.10503,53.88182 7.34889,-18.8928 24.12845,-24.47249 42.49712,-25.60728 l 0.44683,-7.75388 c -18.36867,1.13479 -34.62275,-2.40411 -39.83892,-20.52066 z m 39.39209,28.27454 11.48044,-0.70925 0.44683,-7.75391 -11.48044,0.70924 z m 35.73415,-21.17105 c -3.88699,9.99282 -4.50552,20.72627 -1.74657,30.30851 -2.9341,-10.19055 -12.17476,-10.48503 -22.50712,-9.84671 l 0.44683,-7.75388 c 10.33235,-0.63832 19.67311,-2.08073 23.80686,-12.70792 z"
         inkscape:connector-curvature="0" />
      <g
         transform="matrix(1.2959937,-0.08006494,0.08006494,-1.3893755,325.42778,427.73768)"
         id="g3072"
         style="fill:#000000;fill-opacity:1;stroke:#000000;stroke-opacity:1">
        <path
           id="path3074"
           style="fill:#000000;fill-opacity:1;fill-rule:nonzero;stroke:#000000;stroke-width:1.19553006;stroke-linecap:butt;stroke-linejoin:miter;stroke-miterlimit:10;stroke-dasharray:none;stroke-opacity:1"
           d="m 166.53755,82.2056 c 0,13.69874 -11.1047,24.80346 -24.80345,24.80346 -13.69875,0 -24.80345,-11.10472 -24.80345,-24.80346 0,-13.69875 11.1047,-24.80345 24.80345,-24.80345 13.69875,0 24.80345,11.1047 24.80345,24.80345 z"
           inkscape:connector-curvature="0" />
      </g>
      <path
         id="path3092"
         style="fill:#000000;fill-opacity:1;fill-rule:nonzero;stroke:#000000;stroke-width:1.07158542;stroke-opacity:1"
         d="m 497.37785,375.6275 c 9.33499,-4.12641 19.34706,-4.74495 28.27148,-1.74658 -9.49095,-3.18874 -10.53071,-13.0492 -9.89239,-24.12605 l -5.62546,0.34754 c -0.63832,11.07684 -2.826,21.13669 -12.75363,25.52509 z m 12.52665,-21.58645 0.22697,-3.93864 5.62547,-0.34754 -0.22697,3.93865 z m -7.06902,-18.80334 c 6.94121,2.33207 14.72836,1.85099 21.9889,-1.35844 -7.72144,3.41318 -8.79794,11.19887 -9.29441,19.81425 l -5.62546,0.34753 c 0.49647,-8.61537 0.31281,-16.32321 -7.06903,-18.80334 z"
         inkscape:connector-curvature="0" />
      <g
         transform="matrix(1.2959937,-0.08006494,0.08006494,-1.3893755,325.42778,427.73768)"
         id="g3098"
         style="fill:#000000;fill-opacity:1;stroke:#000000;stroke-opacity:1">
        <path
           id="path3100"
           style="fill:#000000;fill-opacity:1;fill-rule:nonzero;stroke:#000000;stroke-width:1.19553006;stroke-linecap:butt;stroke-linejoin:miter;stroke-miterlimit:10;stroke-dasharray:none;stroke-opacity:1"
           d="m 237.7299,41.1028 c 0,13.69874 -11.10472,24.80345 -24.80346,24.80345 -13.69875,0 -24.80345,-11.10471 -24.80345,-24.80345 0,-13.69875 11.1047,-24.80345 24.80345,-24.80345 13.69874,0 24.80346,11.1047 24.80346,24.80345 z"
           inkscape:connector-curvature="0" />
      </g>
      <path
         id="path3120"
         style="fill:#000000;fill-opacity:1;fill-rule:nonzero;stroke:#000000;stroke-width:1.07158542;stroke-opacity:1"
         d="m 537.75729,380.72672 c 7.05485,6.23747 11.5227,15.22517 12.61602,25.37887 -1.16272,-10.79833 6.45116,-17.72175 15.71956,-23.81034 l -2.51035,-5.04985 c -9.26839,6.08858 -18.32249,10.11475 -25.82523,3.48132 z m 22.3174,-1.17697 3.50783,-2.30435 2.51035,5.04987 -3.50784,2.30435 z m 12.50524,-17.95804 c 0.85036,7.89733 4.32534,14.88775 9.81246,19.73913 -5.83547,-5.15933 -12.59863,-1.46678 -19.80737,3.26878 l -2.51035,-5.04984 c 7.20876,-4.73557 13.40961,-9.55939 12.50526,-17.95807 z"
         inkscape:connector-curvature="0" />
      <g
         transform="matrix(1.2959937,-0.08006494,0.08006494,-1.3893755,325.42778,427.73768)"
         id="g3126"
         style="fill:#000000;fill-opacity:1;stroke:#000000;stroke-opacity:1">
        <path
           id="path3128"
           style="fill:#000000;fill-opacity:1;fill-rule:nonzero;stroke:#000000;stroke-width:1.19553006;stroke-linecap:butt;stroke-linejoin:miter;stroke-miterlimit:10;stroke-dasharray:none;stroke-opacity:1"
           d="m 238.59128,-41.1028 c 0,14.17449 -11.49036,25.66483 -25.66484,25.66483 -14.17447,0 -25.66483,-11.49034 -25.66483,-25.66483 0,-14.17447 11.49036,-25.66482 25.66483,-25.66482 14.17448,0 25.66484,11.49035 25.66484,25.66482 z"
           inkscape:connector-curvature="0" />
      </g>
      <path
         id="path3150"
         style="fill:#000000;fill-opacity:1;fill-rule:nonzero;stroke:#000000;stroke-width:1.07158542;stroke-opacity:1"
         d="m 549.4787,421.62995 c -2.27557,10.36183 -7.8149,19.96776 -15.64162,27.12461 8.3236,-7.61118 16.92268,-4.58522 25.55307,0.39762 l 3.22041,-5.58468 c -8.63036,-4.98283 -15.55189,-10.91788 -13.13186,-21.93755 z m 8.46436,19.24269 4.66752,2.69483 -3.22043,5.58469 -4.66752,-2.69484 z m 20.25047,0.8651 c -6.29884,5.75971 -10.75686,13.49048 -12.58818,21.82955 1.94759,-8.86849 -3.93711,-13.09983 -10.88273,-17.10997 l 3.2204,-5.58468 c 6.94564,4.01012 13.55179,6.99051 20.25051,0.8651 z"
         inkscape:connector-curvature="0" />
      <g
         transform="matrix(1.2959937,-0.08006494,0.08006494,-1.3893755,325.42778,427.73768)"
         id="g3156"
         style="fill:#000000;fill-opacity:1;stroke:#000000;stroke-opacity:1">
        <path
           id="path3158"
           style="fill:#000000;fill-opacity:1;fill-rule:nonzero;stroke:#000000;stroke-width:1.19553006;stroke-linecap:butt;stroke-linejoin:miter;stroke-miterlimit:10;stroke-dasharray:none;stroke-opacity:1"
           d="m 166.53755,-82.2056 c 0,13.69875 -11.1047,24.80345 -24.80345,24.80345 -13.69875,0 -24.80345,-11.1047 -24.80345,-24.80345 0,-13.69874 11.1047,-24.80346 24.80345,-24.80346 13.69875,0 24.80345,11.10472 24.80345,24.80346 z"
           inkscape:connector-curvature="0" />
      </g>
      <path
         id="path3178"
         style="fill:#000000;fill-opacity:1;fill-rule:nonzero;stroke:#000000;stroke-width:1.07158542;stroke-opacity:1"
         d="m 520.8507,457.152 c -9.33499,4.12641 -19.34706,4.74495 -28.27148,1.74658 9.49099,3.18873 10.53073,13.04919 9.89241,24.12605 l 5.62546,-0.34754 c 0.63832,-11.07686 2.82602,-21.1367 12.75361,-25.52509 z m -12.52662,21.58644 -0.22697,3.93865 -5.62548,0.34754 0.22697,-3.93865 z m 7.06899,18.80335 c -6.9412,-2.33207 -14.72835,-1.85099 -21.9889,1.35844 7.72145,-3.41318 8.79795,-11.19888 9.29443,-19.81425 l 5.62546,-0.34753 c -0.49648,8.61537 -0.31281,16.32321 7.06901,18.80334 z"
         inkscape:connector-curvature="0" />
      <path
         inkscape:connector-curvature="0"
         d="m 448.77284,590.05027 c 1.41015,-24.47062 -15.95024,-43.16429 -38.77618,-41.75413 -22.82591,1.41016 -42.47256,22.39007 -43.88272,46.8607 -1.41015,24.47061 15.95024,43.16427 38.77616,41.75411 22.82593,-1.41016 42.47258,-22.39006 43.88274,-46.86068 z"
         style="fill:#000000;fill-opacity:1;fill-rule:nonzero;stroke:#000000;stroke-width:1.60139072;stroke-linecap:butt;stroke-linejoin:miter;stroke-miterlimit:10;stroke-dasharray:none;stroke-opacity:1"
         id="path3186" />
      <path
         id="path3204"
         style="fill:#000000;fill-opacity:1;fill-rule:nonzero;stroke:#000000;stroke-width:1.07158542;stroke-opacity:1"
         d="m 378.9234,475.13727 c -11.94156,14.85063 -27.91942,25.3153 -45.11751,29.54955 18.28984,-4.50306 29.45594,7.83776 37.62821,24.34294 l 6.49265,-4.25234 c -8.17227,-16.50516 -11.70296,-33.84675 0.99665,-49.64015 z m 3.92808,59.58628 -4.9247,-9.94614 -6.49268,4.25235 4.9247,9.94612 z m 19.74558,14.6231 c -9.67389,2.38178 -18.6615,8.26815 -25.37859,16.6216 7.14353,-8.88379 3.73721,-17.70821 -0.85967,-26.99237 l 6.49267,-4.25232 c 4.59689,9.28414 9.45754,17.15606 19.74559,14.62309 z"
         inkscape:connector-curvature="0" />
      <g
         transform="matrix(1.2959937,-0.08006494,0.08006494,-1.3893755,325.42778,427.73768)"
         id="g3210"
         style="fill:#000000;fill-opacity:1;stroke:#000000;stroke-opacity:1">
        <path
           id="path3212"
           style="fill:#000000;fill-opacity:1;fill-rule:nonzero;stroke:#000000;stroke-width:1.19553006;stroke-linecap:butt;stroke-linejoin:miter;stroke-miterlimit:10;stroke-dasharray:none;stroke-opacity:1"
           d="m 166.86284,-163.84848 c 0,13.69875 -11.10472,24.80345 -24.80347,24.80345 -13.69874,0 -24.80345,-11.1047 -24.80345,-24.80345 0,-13.69875 11.10471,-24.80345 24.80345,-24.80345 13.69875,0 24.80347,11.1047 24.80347,24.80345 z"
           inkscape:connector-curvature="0" />
      </g>
      <path
         id="path3230"
         style="fill:#000000;fill-opacity:1;fill-rule:nonzero;stroke:#000000;stroke-width:1.07158542;stroke-opacity:1"
         d="m 447.80771,597.84511 c -2.27556,10.36185 -7.81489,19.96777 -15.64161,27.12461 8.3236,-7.61117 16.97672,-4.67894 25.6071,0.30389 l 3.11237,-5.39723 c -8.63038,-4.98281 -15.49787,-11.01159 -13.07786,-22.03127 z m 9.8115,20.14538 3.26637,1.88586 -3.11237,5.39724 -3.26636,-1.88586 z m 19.57081,0.83608 c -6.08745,5.56642 -10.39582,13.03771 -12.16569,21.09691 1.88226,-8.57085 -3.80497,-12.66021 -10.51749,-16.53575 l 3.11235,-5.39722 c 6.71255,3.87553 13.09692,6.75584 19.57083,0.83606 z"
         inkscape:connector-curvature="0" />
      <g
         transform="matrix(1.2959937,-0.08006494,0.08006494,-1.3893755,325.42778,427.73768)"
         id="g3236"
         style="fill:#000000;fill-opacity:1;stroke:#000000;stroke-opacity:1">
        <path
           id="path3238"
           style="fill:#000000;fill-opacity:1;fill-rule:nonzero;stroke:#000000;stroke-width:1.19553006;stroke-linecap:butt;stroke-linejoin:miter;stroke-miterlimit:10;stroke-dasharray:none;stroke-opacity:1"
           d="m 95.6705,-204.9513 c 0,13.69877 -11.10472,24.80347 -24.80347,24.80347 -13.69874,0 -24.80345,-11.1047 -24.80345,-24.80347 0,-13.69874 11.10471,-24.80345 24.80345,-24.80345 13.69875,0 24.80347,11.10471 24.80347,24.80345 z"
           inkscape:connector-curvature="0" />
      </g>
      <path
         id="path3256"
         style="fill:#000000;fill-opacity:1;fill-rule:nonzero;stroke:#000000;stroke-width:1.07158542;stroke-opacity:1"
         d="m 419.1798,633.36581 c -9.33498,4.12642 -19.34706,4.74495 -28.27144,1.74657 9.49094,3.18876 10.5307,13.0492 9.89238,24.12605 l 5.62545,-0.34753 c 0.63833,-11.07686 2.82601,-21.13668 12.75361,-25.52509 z m -12.52662,21.58645 -0.22697,3.93864 -5.62547,0.34753 0.22697,-3.93863 z m 7.06902,18.80333 c -6.94121,-2.33209 -14.72838,-1.851 -21.98893,1.35845 7.72146,-3.41319 8.79797,-11.19888 9.29444,-19.81424 l 5.62545,-0.34754 c -0.49647,8.61537 -0.31282,16.32321 7.06904,18.80333 z"
         inkscape:connector-curvature="0" />
      <path
         inkscape:connector-curvature="0"
         d="m 265.08636,601.3982 c 1.41016,-24.47062 -15.95024,-43.16429 -38.77615,-41.75413 -22.82593,1.41016 -42.47258,22.39007 -43.88274,46.8607 -1.41016,24.47062 15.95024,43.16427 38.77617,41.75411 22.82591,-1.41016 42.47256,-22.39006 43.88272,-46.86068 z"
         style="fill:#000000;fill-opacity:1;fill-rule:nonzero;stroke:#000000;stroke-width:1.60139072;stroke-linecap:butt;stroke-linejoin:miter;stroke-miterlimit:10;stroke-dasharray:none;stroke-opacity:1"
         id="path3264" />
      <path
         id="path3282"
         style="fill:#000000;fill-opacity:1;fill-rule:nonzero;stroke:#000000;stroke-width:1.07158542;stroke-opacity:1"
         d="m 308.08948,506.27555 c -16.83122,-2.13196 -31.71286,-10.69017 -42.02206,-24.16617 10.96362,14.33151 5.40189,32.23482 -4.73786,49.87128 l 6.04721,3.47764 c 10.13973,-17.63647 22.81303,-31.45006 40.71271,-29.18275 z m -46.82298,39.81062 6.11029,-10.62785 -6.04723,-3.47766 -6.1103,10.62787 z m -3.98792,27.29183 c -5.79889,-7.58024 -14.16987,-12.39422 -23.6374,-13.59345 10.06859,1.27535 15.87447,-7.25553 21.57808,-17.17602 l 6.04721,3.47761 c -5.70359,9.92052 -10.15492,19.23038 -3.98789,27.29186 z"
         inkscape:connector-curvature="0" />
      <path
         inkscape:connector-curvature="0"
         d="m 183.07074,436.53233 c 1.41016,-24.47062 -15.95027,-43.16427 -38.77619,-41.75411 -22.82593,1.41016 -42.47258,22.39006 -43.88273,46.86068 -1.410161,24.47061 15.95024,43.16427 38.77617,41.75411 22.82591,-1.41016 42.47259,-22.39007 43.88275,-46.86068 z"
         style="fill:#000000;fill-opacity:1;fill-rule:nonzero;stroke:#000000;stroke-width:1.60139072;stroke-linecap:butt;stroke-linejoin:miter;stroke-miterlimit:10;stroke-dasharray:none;stroke-opacity:1"
         id="path3290" />
      <path
         id="path3308"
         style="fill:#000000;fill-opacity:1;fill-rule:nonzero;stroke:#000000;stroke-width:1.07158542;stroke-opacity:1"
         d="m 254.83141,458.94403 c -4.90481,-17.03511 -3.8052,-36.11677 3.10502,-53.88182 -7.34889,18.89281 -24.12845,24.47249 -42.49711,25.60728 l -0.44683,7.75388 c 18.36866,-1.13479 34.62275,2.40412 39.83892,20.52066 z m -51.31937,-19.81137 11.48045,-0.70925 0.44683,-7.75392 -11.48045,0.70925 z m -23.80688,12.70789 c 3.88699,-9.99282 4.50552,-20.72626 1.74658,-30.3085 2.9341,10.19054 12.17476,10.48501 22.50713,9.84669 l -0.44683,7.75388 c -10.33237,0.63832 -19.67312,2.08074 -23.80688,12.70793 z"
         inkscape:connector-curvature="0" />
    </g>
  </g>
</svg>
