<?xml version="1.0" encoding="UTF-8" standalone="no"?>
<!-- Generator: Adobe Illustrator 12.0.1, SVG Export Plug-In . SVG Version: 6.00 Build 51448)  -->

<svg
   xmlns:dc="http://purl.org/dc/elements/1.1/"
   xmlns:cc="http://creativecommons.org/ns#"
   xmlns:rdf="http://www.w3.org/1999/02/22-rdf-syntax-ns#"
   xmlns:svg="http://www.w3.org/2000/svg"
   xmlns="http://www.w3.org/2000/svg"
   xmlns:sodipodi="http://sodipodi.sourceforge.net/DTD/sodipodi-0.dtd"
   xmlns:inkscape="http://www.inkscape.org/namespaces/inkscape"
   version="1.0"
   id="Layer_1"
   width="14"
   height="14"
   viewBox="0 0 14 14"
   style="overflow:visible"
   xml:space="preserve"
   inkscape:version="0.48.3.1 r9886"
   sodipodi:docname="2.svg"><metadata
   id="metadata3206"><rdf:RDF><cc:Work
       rdf:about=""><dc:format>image/svg+xml</dc:format><dc:type
         rdf:resource="http://purl.org/dc/dcmitype/StillImage" /></cc:Work></rdf:RDF></metadata><defs
   id="defs3204" /><sodipodi:namedview
   pagecolor="#ffffff"
   bordercolor="#666666"
   borderopacity="1"
   objecttolerance="10"
   gridtolerance="10"
   guidetolerance="10"
   inkscape:pageopacity="0"
   inkscape:pageshadow="2"
   inkscape:window-width="1010"
   inkscape:window-height="646"
   id="namedview3202"
   showgrid="false"
   fit-margin-top="0"
   fit-margin-left="0"
   fit-margin-right="0"
   fit-margin-bottom="0"
   inkscape:zoom="7.1515152"
   inkscape:cx="16.5"
   inkscape:cy="16.5"
   inkscape:window-x="49"
   inkscape:window-y="24"
   inkscape:window-maximized="0"
   inkscape:current-layer="Layer_1" />

<g
   id="g3208"
   transform="scale(0.42424242,0.42424242)"><circle
     id="circle3194"
     r="16"
     cy="16.5"
     cx="16.5"
     style="stroke:#000000"
     d="m 32.5,16.5 c 0,8.836556 -7.163444,16 -16,16 -8.836556,0 -16,-7.163444 -16,-16 0,-8.836556 7.163444,-16 16,-16 8.836556,0 16,7.163444 16,16 z"
     sodipodi:cx="16.5"
     sodipodi:cy="16.5"
     sodipodi:rx="16"
     sodipodi:ry="16" /><g
     id="g3196">
	<g
   id="g3198"
   style="enable-background:new">
		<path
   id="path3200"
   d="M 9.668,12.328 C 9.668,5.859 14.4,5.3 16.164,5.3 c 3.808,0 6.833,2.24 6.833,6.271 0,3.416 -2.213,5.152 -4.145,6.469 -2.632,1.848 -4.004,2.744 -4.452,3.668 h 8.624 V 25.18 H 9.444 c 0.14,-2.324 0.308,-4.76 4.62,-7.896 3.584,-2.604 5.012,-3.612 5.012,-5.853 0,-1.315 -0.84,-2.828 -2.744,-2.828 -2.744,0 -2.828,2.269 -2.856,3.725 H 9.668 z"
   style="fill:#ffffff"
   inkscape:connector-curvature="0" />
	</g>
</g></g>
</svg>