<?xml version="1.0" encoding="UTF-8" standalone="no"?>
<!-- Generator: Adobe Illustrator 12.0.1, SVG Export Plug-In . SVG Version: 6.00 Build 51448)  -->

<svg
   xmlns:dc="http://purl.org/dc/elements/1.1/"
   xmlns:cc="http://creativecommons.org/ns#"
   xmlns:rdf="http://www.w3.org/1999/02/22-rdf-syntax-ns#"
   xmlns:svg="http://www.w3.org/2000/svg"
   xmlns="http://www.w3.org/2000/svg"
   xmlns:sodipodi="http://sodipodi.sourceforge.net/DTD/sodipodi-0.dtd"
   xmlns:inkscape="http://www.inkscape.org/namespaces/inkscape"
   version="1.0"
   id="Layer_1"
   width="14"
   height="14"
   viewBox="0 0 14 14"
   style="overflow:visible"
   xml:space="preserve"
   inkscape:version="0.48.3.1 r9886"
   sodipodi:docname="3.svg"><metadata
   id="metadata3277"><rdf:RDF><cc:Work
       rdf:about=""><dc:format>image/svg+xml</dc:format><dc:type
         rdf:resource="http://purl.org/dc/dcmitype/StillImage" /></cc:Work></rdf:RDF></metadata><defs
   id="defs3275" /><sodipodi:namedview
   pagecolor="#ffffff"
   bordercolor="#666666"
   borderopacity="1"
   objecttolerance="10"
   gridtolerance="10"
   guidetolerance="10"
   inkscape:pageopacity="0"
   inkscape:pageshadow="2"
   inkscape:window-width="1231"
   inkscape:window-height="696"
   id="namedview3273"
   showgrid="false"
   fit-margin-top="0"
   fit-margin-left="0"
   fit-margin-right="0"
   fit-margin-bottom="0"
   inkscape:zoom="7.1515152"
   inkscape:cx="16.5"
   inkscape:cy="16.5"
   inkscape:window-x="49"
   inkscape:window-y="24"
   inkscape:window-maximized="1"
   inkscape:current-layer="Layer_1" />

<g
   id="g3279"
   transform="scale(0.42424242,0.42424242)"><circle
     id="circle3265"
     r="16"
     cy="16.5"
     cx="16.5"
     style="stroke:#000000"
     sodipodi:cx="16.5"
     sodipodi:cy="16.5"
     sodipodi:rx="16"
     sodipodi:ry="16"
     d="m 32.5,16.5 c 0,8.836556 -7.163444,16 -16,16 -8.836556,0 -16,-7.163444 -16,-16 0,-8.836556 7.163444,-16 16,-16 8.836556,0 16,7.163444 16,16 z" /><g
     id="g3267">
	<g
   id="g3269"
   style="enable-background:new">
		<path
   id="path3271"
   d="m 15.127,14.005 h 0.616 c 1.176,0 3.332,-0.112 3.332,-2.688 0,-0.728 -0.336,-2.548 -2.492,-2.548 -2.688,0 -2.688,2.548 -2.688,3.248 h -3.64 c 0,-3.724 2.1,-6.384 6.58,-6.384 2.66,0 6.16,1.344 6.16,5.544 0,2.016 -1.261,3.276 -2.38,3.78 v 0.056 c 0.699,0.196 2.996,1.232 2.996,4.62 0,3.752 -2.772,6.412 -6.776,6.412 -1.876,0 -6.916,-0.42 -6.916,-6.636 h 3.836 l -0.028,0.027 c 0,1.064 0.28,3.473 2.912,3.473 1.568,0 2.94,-1.064 2.94,-3.276 0,-2.716 -2.632,-2.828 -4.452,-2.828 v -2.8 z"
   style="fill:#ffffff"
   inkscape:connector-curvature="0" />
	</g>
</g></g>
</svg>