<?xml version="1.0" encoding="UTF-8" standalone="no"?>
<!-- Generator: Adobe Illustrator 12.0.1, SVG Export Plug-In . SVG Version: 6.00 Build 51448)  -->

<svg
   xmlns:dc="http://purl.org/dc/elements/1.1/"
   xmlns:cc="http://creativecommons.org/ns#"
   xmlns:rdf="http://www.w3.org/1999/02/22-rdf-syntax-ns#"
   xmlns:svg="http://www.w3.org/2000/svg"
   xmlns="http://www.w3.org/2000/svg"
   xmlns:sodipodi="http://sodipodi.sourceforge.net/DTD/sodipodi-0.dtd"
   xmlns:inkscape="http://www.inkscape.org/namespaces/inkscape"
   version="1.0"
   id="Layer_1"
   width="14"
   height="14"
   viewBox="0 0 14 14"
   style="overflow:visible"
   xml:space="preserve"
   inkscape:version="0.48.3.1 r9886"
   sodipodi:docname="5.svg"><metadata
   id="metadata3490"><rdf:RDF><cc:Work
       rdf:about=""><dc:format>image/svg+xml</dc:format><dc:type
         rdf:resource="http://purl.org/dc/dcmitype/StillImage" /></cc:Work></rdf:RDF></metadata><defs
   id="defs3488" /><sodipodi:namedview
   pagecolor="#ffffff"
   bordercolor="#666666"
   borderopacity="1"
   objecttolerance="10"
   gridtolerance="10"
   guidetolerance="10"
   inkscape:pageopacity="0"
   inkscape:pageshadow="2"
   inkscape:window-width="1231"
   inkscape:window-height="696"
   id="namedview3486"
   showgrid="false"
   fit-margin-top="0"
   fit-margin-left="0"
   fit-margin-right="0"
   fit-margin-bottom="0"
   inkscape:zoom="7.1515152"
   inkscape:cx="16.5"
   inkscape:cy="16.5"
   inkscape:window-x="49"
   inkscape:window-y="24"
   inkscape:window-maximized="1"
   inkscape:current-layer="Layer_1" />

<g
   id="g3492"
   transform="scale(0.42424242,0.42424242)"><circle
     id="circle3478"
     r="16"
     cy="16.5"
     cx="16.5"
     style="stroke:#000000"
     d="m 32.5,16.5 c 0,8.836556 -7.163444,16 -16,16 -8.836556,0 -16,-7.163444 -16,-16 0,-8.836556 7.163444,-16 16,-16 8.836556,0 16,7.163444 16,16 z"
     sodipodi:cx="16.5"
     sodipodi:cy="16.5"
     sodipodi:rx="16"
     sodipodi:ry="16" /><g
     id="g3480">
	<g
   id="g3482"
   style="enable-background:new">
		<path
   id="path3484"
   d="m 14.035,14.252 c 0.728,-0.504 1.624,-1.092 3.556,-1.092 2.66,0 6.02,1.848 6.02,6.411 0,2.717 -1.372,7.141 -7.224,7.141 -3.108,0 -6.272,-1.849 -6.468,-5.853 h 3.92 c 0.168,1.624 1.036,2.717 2.772,2.717 1.876,0 2.968,-1.597 2.968,-3.725 0,-1.764 -0.839,-3.556 -2.912,-3.556 -0.532,0 -1.876,0.028 -2.632,1.428 l -3.5,-0.168 1.372,-10.92 h 10.919 v 3.304 h -8.092 l -0.699,4.313 z"
   style="fill:#ffffff"
   inkscape:connector-curvature="0" />
	</g>
</g></g>
</svg>