<?xml version="1.0" encoding="UTF-8"?>
<svg xmlns="http://www.w3.org/2000/svg" xmlns:xlink="http://www.w3.org/1999/xlink" width="256pt" height="256pt" viewBox="0 0 256 256" version="1.1">
<g id="surface1">
<path style="fill:none;stroke-width:1;stroke-linecap:butt;stroke-linejoin:miter;stroke:rgb(100%,0%,0%);stroke-opacity:1;stroke-miterlimit:10;" d="M 12 238 L 7 243 L 7 244 L 6 245 L 6 252 L 7 253 L 7 254 L 8 255 L 25 255 L 25 251 L 19 245 L 19 243 L 18 242 L 18 239 L 17 238 Z M 12 238 "/>
<path style=" stroke:none;fill-rule:nonzero;fill:rgb(100%,100%,0%);fill-opacity:1;" d="M 12 238 L 7 243 L 7 244 L 6 245 L 6 252 L 7 253 L 7 254 L 8 255 L 25 255 L 25 251 L 19 245 L 19 243 L 18 242 L 18 239 L 17 238 Z M 12 238 "/>
<path style="fill:none;stroke-width:1;stroke-linecap:butt;stroke-linejoin:miter;stroke:rgb(100%,0%,0%);stroke-opacity:1;stroke-miterlimit:10;" d="M 102 236 L 101 237 L 98 237 L 97 238 L 93 238 L 92 239 L 90 239 L 89 240 L 89 244 L 90 245 L 95 245 L 96 244 L 101 244 L 102 243 L 104 243 L 105 242 L 108 242 L 109 241 L 109 237 L 108 236 Z M 102 236 "/>
<path style=" stroke:none;fill-rule:nonzero;fill:rgb(100%,100%,0%);fill-opacity:1;" d="M 102 236 L 101 237 L 98 237 L 97 238 L 93 238 L 92 239 L 90 239 L 89 240 L 89 244 L 90 245 L 95 245 L 96 244 L 101 244 L 102 243 L 104 243 L 105 242 L 108 242 L 109 241 L 109 237 L 108 236 Z M 102 236 "/>
<path style="fill:none;stroke-width:1;stroke-linecap:butt;stroke-linejoin:miter;stroke:rgb(100%,0%,0%);stroke-opacity:1;stroke-miterlimit:10;" d="M 167 234 L 166 235 L 165 235 L 160 240 L 160 241 L 159 242 L 159 243 L 158 244 L 158 251 L 159 252 L 160 252 L 161 253 L 164 253 L 165 254 L 167 254 L 168 255 L 196 255 L 196 254 L 197 253 L 199 253 L 200 252 L 200 248 L 199 247 L 198 247 L 196 245 L 194 245 L 193 244 L 191 244 L 190 243 L 189 243 L 188 242 L 187 242 L 186 241 L 184 241 L 182 239 L 181 239 L 180 238 L 179 238 L 178 237 L 177 237 L 176 236 L 174 236 L 172 234 Z M 167 234 "/>
<path style=" stroke:none;fill-rule:nonzero;fill:rgb(100%,100%,0%);fill-opacity:1;" d="M 167 234 L 166 235 L 165 235 L 160 240 L 160 241 L 159 242 L 159 243 L 158 244 L 158 251 L 159 252 L 160 252 L 161 253 L 164 253 L 165 254 L 167 254 L 168 255 L 196 255 L 196 254 L 197 253 L 199 253 L 200 252 L 200 248 L 199 247 L 198 247 L 196 245 L 194 245 L 193 244 L 191 244 L 190 243 L 189 243 L 188 242 L 187 242 L 186 241 L 184 241 L 182 239 L 181 239 L 180 238 L 179 238 L 178 237 L 177 237 L 176 236 L 174 236 L 172 234 Z M 167 234 "/>
<path style="fill:none;stroke-width:1;stroke-linecap:butt;stroke-linejoin:miter;stroke:rgb(100%,0%,0%);stroke-opacity:1;stroke-miterlimit:10;" d="M 215 224 L 214 225 L 214 229 L 216 231 L 216 232 L 219 235 L 219 236 L 222 239 L 224 239 L 225 240 L 232 240 L 233 239 L 233 237 L 234 236 L 234 232 L 233 231 L 231 231 L 230 230 L 228 230 L 227 229 L 225 229 L 220 224 Z M 215 224 "/>
<path style=" stroke:none;fill-rule:nonzero;fill:rgb(100%,100%,0%);fill-opacity:1;" d="M 215 224 L 214 225 L 214 229 L 216 231 L 216 232 L 219 235 L 219 236 L 222 239 L 224 239 L 225 240 L 232 240 L 233 239 L 233 237 L 234 236 L 234 232 L 233 231 L 231 231 L 230 230 L 228 230 L 227 229 L 225 229 L 220 224 Z M 215 224 "/>
<path style="fill:none;stroke-width:1;stroke-linecap:butt;stroke-linejoin:miter;stroke:rgb(100%,0%,0%);stroke-opacity:1;stroke-miterlimit:10;" d="M 88 202 L 87 203 L 82 203 L 81 204 L 81 205 L 80 206 L 80 207 L 78 209 L 78 210 L 77 211 L 77 213 L 76 214 L 76 220 L 77 221 L 79 221 L 80 222 L 92 222 L 93 221 L 97 221 L 99 219 L 99 211 L 98 210 L 98 207 L 97 206 L 97 203 L 96 202 Z M 88 202 "/>
<path style=" stroke:none;fill-rule:nonzero;fill:rgb(100%,100%,0%);fill-opacity:1;" d="M 88 202 L 87 203 L 82 203 L 81 204 L 81 205 L 80 206 L 80 207 L 78 209 L 78 210 L 77 211 L 77 213 L 76 214 L 76 220 L 77 221 L 79 221 L 80 222 L 92 222 L 93 221 L 97 221 L 99 219 L 99 211 L 98 210 L 98 207 L 97 206 L 97 203 L 96 202 Z M 88 202 "/>
<path style="fill:none;stroke-width:1;stroke-linecap:butt;stroke-linejoin:miter;stroke:rgb(100%,0%,0%);stroke-opacity:1;stroke-miterlimit:10;" d="M 35 199 L 34 200 L 34 201 L 33 202 L 33 205 L 32 206 L 32 209 L 31 210 L 31 219 L 34 222 L 35 222 L 36 223 L 44 223 L 45 222 L 47 222 L 50 219 L 50 217 L 51 216 L 51 215 L 53 213 L 53 207 L 51 205 L 50 205 L 49 204 L 47 204 L 46 203 L 44 203 L 43 202 L 43 200 L 42 199 Z M 35 199 "/>
<path style=" stroke:none;fill-rule:nonzero;fill:rgb(100%,100%,0%);fill-opacity:1;" d="M 35 199 L 34 200 L 34 201 L 33 202 L 33 205 L 32 206 L 32 209 L 31 210 L 31 219 L 34 222 L 35 222 L 36 223 L 44 223 L 45 222 L 47 222 L 50 219 L 50 217 L 51 216 L 51 215 L 53 213 L 53 207 L 51 205 L 50 205 L 49 204 L 47 204 L 46 203 L 44 203 L 43 202 L 43 200 L 42 199 Z M 35 199 "/>
<path style="fill:none;stroke-width:1;stroke-linecap:butt;stroke-linejoin:miter;stroke:rgb(100%,0%,0%);stroke-opacity:1;stroke-miterlimit:10;" d="M 133 197 L 131 199 L 129 199 L 124 204 L 124 212 L 126 214 L 135 214 L 137 212 L 137 205 L 138 204 L 138 198 L 137 197 Z M 133 197 "/>
<path style=" stroke:none;fill-rule:nonzero;fill:rgb(100%,100%,0%);fill-opacity:1;" d="M 133 197 L 131 199 L 129 199 L 124 204 L 124 212 L 126 214 L 135 214 L 137 212 L 137 205 L 138 204 L 138 198 L 137 197 Z M 133 197 "/>
<path style="fill:none;stroke-width:1;stroke-linecap:butt;stroke-linejoin:miter;stroke:rgb(100%,0%,0%);stroke-opacity:1;stroke-miterlimit:10;" d="M 167 194 L 166 195 L 166 210 L 168 212 L 177 212 L 178 211 L 180 211 L 181 210 L 182 210 L 183 209 L 185 209 L 187 207 L 189 207 L 191 205 L 192 205 L 193 204 L 193 200 L 192 199 L 190 199 L 189 198 L 187 198 L 186 197 L 184 197 L 183 196 L 180 196 L 179 195 L 173 195 L 172 194 Z M 167 194 "/>
<path style=" stroke:none;fill-rule:nonzero;fill:rgb(100%,100%,0%);fill-opacity:1;" d="M 167 194 L 166 195 L 166 210 L 168 212 L 177 212 L 178 211 L 180 211 L 181 210 L 182 210 L 183 209 L 185 209 L 187 207 L 189 207 L 191 205 L 192 205 L 193 204 L 193 200 L 192 199 L 190 199 L 189 198 L 187 198 L 186 197 L 184 197 L 183 196 L 180 196 L 179 195 L 173 195 L 172 194 Z M 167 194 "/>
<path style="fill:none;stroke-width:1;stroke-linecap:butt;stroke-linejoin:miter;stroke:rgb(100%,0%,0%);stroke-opacity:1;stroke-miterlimit:10;" d="M 234 182 L 232 184 L 232 186 L 231 187 L 231 207 L 232 208 L 233 208 L 234 209 L 239 209 L 240 210 L 248 210 L 250 208 L 250 206 L 251 205 L 251 204 L 252 203 L 252 201 L 253 200 L 253 198 L 255 196 L 255 185 L 246 185 L 245 184 L 244 184 L 242 182 Z M 234 182 "/>
<path style=" stroke:none;fill-rule:nonzero;fill:rgb(100%,100%,0%);fill-opacity:1;" d="M 234 182 L 232 184 L 232 186 L 231 187 L 231 207 L 232 208 L 233 208 L 234 209 L 239 209 L 240 210 L 248 210 L 250 208 L 250 206 L 251 205 L 251 204 L 252 203 L 252 201 L 253 200 L 253 198 L 255 196 L 255 185 L 246 185 L 245 184 L 244 184 L 242 182 Z M 234 182 "/>
<path style="fill:none;stroke-width:1;stroke-linecap:butt;stroke-linejoin:miter;stroke:rgb(100%,0%,0%);stroke-opacity:1;stroke-miterlimit:10;" d="M 0 159 L 0 182 L 1 183 L 5 183 L 6 182 L 7 182 L 8 181 L 8 180 L 12 176 L 12 165 L 11 164 L 11 163 L 9 161 L 9 160 L 8 159 Z M 0 159 "/>
<path style=" stroke:none;fill-rule:nonzero;fill:rgb(100%,100%,0%);fill-opacity:1;" d="M 0 159 L 0 182 L 1 183 L 5 183 L 6 182 L 7 182 L 8 181 L 8 180 L 12 176 L 12 165 L 11 164 L 11 163 L 9 161 L 9 160 L 8 159 Z M 0 159 "/>
<path style="fill:none;stroke-width:1;stroke-linecap:butt;stroke-linejoin:miter;stroke:rgb(100%,0%,0%);stroke-opacity:1;stroke-miterlimit:10;" d="M 215 156 L 213 158 L 211 158 L 210 159 L 208 159 L 207 160 L 204 160 L 203 161 L 198 161 L 197 162 L 196 162 L 195 163 L 195 167 L 196 168 L 197 168 L 198 169 L 201 169 L 202 170 L 204 170 L 205 171 L 214 171 L 215 170 L 219 170 L 220 169 L 221 169 L 222 168 L 223 168 L 225 166 L 226 166 L 227 165 L 227 161 L 225 159 L 224 159 L 223 158 L 222 158 L 221 157 L 220 157 L 219 156 Z M 215 156 "/>
<path style=" stroke:none;fill-rule:nonzero;fill:rgb(100%,100%,0%);fill-opacity:1;" d="M 215 156 L 213 158 L 211 158 L 210 159 L 208 159 L 207 160 L 204 160 L 203 161 L 198 161 L 197 162 L 196 162 L 195 163 L 195 167 L 196 168 L 197 168 L 198 169 L 201 169 L 202 170 L 204 170 L 205 171 L 214 171 L 215 170 L 219 170 L 220 169 L 221 169 L 222 168 L 223 168 L 225 166 L 226 166 L 227 165 L 227 161 L 225 159 L 224 159 L 223 158 L 222 158 L 221 157 L 220 157 L 219 156 Z M 215 156 "/>
<path style="fill:none;stroke-width:1;stroke-linecap:butt;stroke-linejoin:miter;stroke:rgb(100%,0%,0%);stroke-opacity:1;stroke-miterlimit:10;" d="M 72 156 L 69 159 L 69 167 L 73 171 L 74 171 L 75 172 L 80 172 L 81 171 L 81 170 L 82 169 L 82 161 L 81 160 L 80 160 L 76 156 Z M 72 156 "/>
<path style=" stroke:none;fill-rule:nonzero;fill:rgb(100%,100%,0%);fill-opacity:1;" d="M 72 156 L 69 159 L 69 167 L 73 171 L 74 171 L 75 172 L 80 172 L 81 171 L 81 170 L 82 169 L 82 161 L 81 160 L 80 160 L 76 156 Z M 72 156 "/>
<path style="fill:none;stroke-width:1;stroke-linecap:butt;stroke-linejoin:miter;stroke:rgb(100%,0%,0%);stroke-opacity:1;stroke-miterlimit:10;" d="M 42 138 L 41 139 L 40 139 L 39 140 L 36 140 L 35 141 L 35 144 L 34 145 L 34 153 L 38 157 L 48 157 L 50 155 L 50 150 L 51 149 L 51 142 L 50 141 L 50 140 L 48 138 Z M 42 138 "/>
<path style=" stroke:none;fill-rule:nonzero;fill:rgb(100%,100%,0%);fill-opacity:1;" d="M 42 138 L 41 139 L 40 139 L 39 140 L 36 140 L 35 141 L 35 144 L 34 145 L 34 153 L 38 157 L 48 157 L 50 155 L 50 150 L 51 149 L 51 142 L 50 141 L 50 140 L 48 138 Z M 42 138 "/>
<path style="fill:none;stroke-width:1;stroke-linecap:butt;stroke-linejoin:miter;stroke:rgb(100%,0%,0%);stroke-opacity:1;stroke-miterlimit:10;" d="M 143 128 L 142 129 L 142 134 L 143 135 L 143 142 L 145 144 L 155 144 L 156 143 L 156 138 L 155 137 L 155 136 L 154 135 L 154 130 L 153 129 L 152 129 L 151 128 Z M 143 128 "/>
<path style=" stroke:none;fill-rule:nonzero;fill:rgb(100%,100%,0%);fill-opacity:1;" d="M 143 128 L 142 129 L 142 134 L 143 135 L 143 142 L 145 144 L 155 144 L 156 143 L 156 138 L 155 137 L 155 136 L 154 135 L 154 130 L 153 129 L 152 129 L 151 128 Z M 143 128 "/>
<path style="fill:none;stroke-width:1;stroke-linecap:butt;stroke-linejoin:miter;stroke:rgb(100%,0%,0%);stroke-opacity:1;stroke-miterlimit:10;" d="M 100 125 L 99 126 L 99 134 L 98 135 L 98 158 L 99 159 L 99 164 L 106 171 L 108 171 L 109 172 L 118 172 L 119 171 L 120 171 L 121 170 L 123 170 L 125 168 L 125 167 L 126 166 L 126 151 L 125 150 L 125 148 L 124 147 L 124 146 L 120 142 L 120 140 L 117 137 L 117 136 L 114 133 L 114 132 L 111 129 L 110 129 L 109 128 L 106 128 L 105 127 L 105 126 L 104 125 Z M 100 125 "/>
<path style=" stroke:none;fill-rule:nonzero;fill:rgb(100%,100%,0%);fill-opacity:1;" d="M 100 125 L 99 126 L 99 134 L 98 135 L 98 158 L 99 159 L 99 164 L 106 171 L 108 171 L 109 172 L 118 172 L 119 171 L 120 171 L 121 170 L 123 170 L 125 168 L 125 167 L 126 166 L 126 151 L 125 150 L 125 148 L 124 147 L 124 146 L 120 142 L 120 140 L 117 137 L 117 136 L 114 133 L 114 132 L 111 129 L 110 129 L 109 128 L 106 128 L 105 127 L 105 126 L 104 125 Z M 100 125 "/>
<path style="fill:none;stroke-width:1;stroke-linecap:butt;stroke-linejoin:miter;stroke:rgb(100%,0%,0%);stroke-opacity:1;stroke-miterlimit:10;" d="M 187 122 L 186 123 L 186 133 L 188 135 L 188 136 L 189 137 L 189 138 L 190 139 L 191 139 L 192 140 L 200 140 L 202 138 L 202 137 L 204 135 L 204 126 L 202 124 L 201 124 L 199 122 Z M 187 122 "/>
<path style=" stroke:none;fill-rule:nonzero;fill:rgb(100%,100%,0%);fill-opacity:1;" d="M 187 122 L 186 123 L 186 133 L 188 135 L 188 136 L 189 137 L 189 138 L 190 139 L 191 139 L 192 140 L 200 140 L 202 138 L 202 137 L 204 135 L 204 126 L 202 124 L 201 124 L 199 122 Z M 187 122 "/>
<path style="fill:none;stroke-width:1;stroke-linecap:butt;stroke-linejoin:miter;stroke:rgb(100%,0%,0%);stroke-opacity:1;stroke-miterlimit:10;" d="M 48 92 L 47 93 L 46 93 L 43 96 L 43 97 L 42 98 L 42 99 L 41 100 L 41 112 L 45 116 L 48 116 L 50 118 L 62 118 L 63 117 L 64 117 L 66 115 L 66 108 L 65 107 L 64 107 L 62 105 L 61 105 L 58 102 L 58 97 L 57 96 L 55 96 L 54 95 L 54 93 L 53 92 Z M 48 92 "/>
<path style=" stroke:none;fill-rule:nonzero;fill:rgb(100%,100%,0%);fill-opacity:1;" d="M 48 92 L 47 93 L 46 93 L 43 96 L 43 97 L 42 98 L 42 99 L 41 100 L 41 112 L 45 116 L 48 116 L 50 118 L 62 118 L 63 117 L 64 117 L 66 115 L 66 108 L 65 107 L 64 107 L 62 105 L 61 105 L 58 102 L 58 97 L 57 96 L 55 96 L 54 95 L 54 93 L 53 92 Z M 48 92 "/>
<path style="fill:none;stroke-width:1;stroke-linecap:butt;stroke-linejoin:miter;stroke:rgb(100%,0%,0%);stroke-opacity:1;stroke-miterlimit:10;" d="M 232 91 L 231 92 L 231 106 L 232 107 L 232 108 L 235 111 L 237 111 L 240 114 L 241 114 L 243 116 L 243 118 L 244 119 L 244 120 L 245 121 L 245 122 L 246 123 L 246 124 L 247 125 L 247 128 L 248 129 L 248 131 L 249 132 L 254 132 L 255 131 L 255 109 L 252 106 L 252 105 L 250 103 L 250 102 L 249 101 L 249 100 L 248 99 L 248 98 L 244 94 L 242 94 L 241 93 L 239 93 L 237 91 Z M 232 91 "/>
<path style=" stroke:none;fill-rule:nonzero;fill:rgb(100%,100%,0%);fill-opacity:1;" d="M 232 91 L 231 92 L 231 106 L 232 107 L 232 108 L 235 111 L 237 111 L 240 114 L 241 114 L 243 116 L 243 118 L 244 119 L 244 120 L 245 121 L 245 122 L 246 123 L 246 124 L 247 125 L 247 128 L 248 129 L 248 131 L 249 132 L 254 132 L 255 131 L 255 109 L 252 106 L 252 105 L 250 103 L 250 102 L 249 101 L 249 100 L 248 99 L 248 98 L 244 94 L 242 94 L 241 93 L 239 93 L 237 91 Z M 232 91 "/>
<path style="fill:none;stroke-width:1;stroke-linecap:butt;stroke-linejoin:miter;stroke:rgb(100%,0%,0%);stroke-opacity:1;stroke-miterlimit:10;" d="M 113 85 L 110 88 L 110 89 L 108 91 L 108 98 L 109 99 L 116 99 L 119 96 L 119 95 L 122 92 L 122 88 L 121 87 L 120 87 L 118 85 Z M 113 85 "/>
<path style=" stroke:none;fill-rule:nonzero;fill:rgb(100%,100%,0%);fill-opacity:1;" d="M 113 85 L 110 88 L 110 89 L 108 91 L 108 98 L 109 99 L 116 99 L 119 96 L 119 95 L 122 92 L 122 88 L 121 87 L 120 87 L 118 85 Z M 113 85 "/>
<path style="fill:none;stroke-width:1;stroke-linecap:butt;stroke-linejoin:miter;stroke:rgb(100%,0%,0%);stroke-opacity:1;stroke-miterlimit:10;" d="M 0 78 L 0 84 L 6 84 L 7 85 L 7 86 L 8 87 L 8 88 L 10 90 L 10 91 L 11 92 L 11 100 L 10 101 L 10 102 L 8 104 L 6 104 L 5 105 L 4 105 L 3 106 L 1 106 L 0 107 L 0 111 L 1 112 L 7 112 L 8 111 L 9 111 L 10 110 L 12 110 L 15 107 L 15 106 L 16 105 L 16 104 L 17 103 L 17 88 L 16 87 L 16 86 L 15 85 L 15 84 L 14 83 L 14 82 L 12 80 L 12 79 L 11 78 Z M 0 78 "/>
<path style=" stroke:none;fill-rule:nonzero;fill:rgb(100%,100%,0%);fill-opacity:1;" d="M 0 78 L 0 84 L 6 84 L 7 85 L 7 86 L 8 87 L 8 88 L 10 90 L 10 91 L 11 92 L 11 100 L 10 101 L 10 102 L 8 104 L 6 104 L 5 105 L 4 105 L 3 106 L 1 106 L 0 107 L 0 111 L 1 112 L 7 112 L 8 111 L 9 111 L 10 110 L 12 110 L 15 107 L 15 106 L 16 105 L 16 104 L 17 103 L 17 88 L 16 87 L 16 86 L 15 85 L 15 84 L 14 83 L 14 82 L 12 80 L 12 79 L 11 78 Z M 0 78 "/>
<path style="fill:none;stroke-width:1;stroke-linecap:butt;stroke-linejoin:miter;stroke:rgb(100%,0%,0%);stroke-opacity:1;stroke-miterlimit:10;" d="M 148 75 L 146 77 L 146 79 L 145 80 L 145 89 L 146 90 L 147 90 L 149 92 L 150 92 L 151 93 L 152 93 L 153 94 L 161 94 L 163 92 L 163 81 L 162 80 L 162 79 L 158 75 Z M 148 75 "/>
<path style=" stroke:none;fill-rule:nonzero;fill:rgb(100%,100%,0%);fill-opacity:1;" d="M 148 75 L 146 77 L 146 79 L 145 80 L 145 89 L 146 90 L 147 90 L 149 92 L 150 92 L 151 93 L 152 93 L 153 94 L 161 94 L 163 92 L 163 81 L 162 80 L 162 79 L 158 75 Z M 148 75 "/>
<path style="fill:none;stroke-width:1;stroke-linecap:butt;stroke-linejoin:miter;stroke:rgb(100%,0%,0%);stroke-opacity:1;stroke-miterlimit:10;" d="M 211 74 L 210 75 L 207 75 L 206 76 L 200 76 L 199 77 L 199 83 L 200 84 L 200 85 L 202 87 L 204 87 L 205 88 L 214 88 L 220 82 L 220 78 L 218 76 L 218 75 L 217 74 Z M 211 74 "/>
<path style=" stroke:none;fill-rule:nonzero;fill:rgb(100%,100%,0%);fill-opacity:1;" d="M 211 74 L 210 75 L 207 75 L 206 76 L 200 76 L 199 77 L 199 83 L 200 84 L 200 85 L 202 87 L 204 87 L 205 88 L 214 88 L 220 82 L 220 78 L 218 76 L 218 75 L 217 74 Z M 211 74 "/>
<path style="fill:none;stroke-width:1;stroke-linecap:butt;stroke-linejoin:miter;stroke:rgb(100%,0%,0%);stroke-opacity:1;stroke-miterlimit:10;" d="M 80 58 L 79 59 L 78 59 L 77 60 L 77 61 L 76 62 L 76 66 L 77 67 L 77 69 L 78 70 L 78 71 L 83 76 L 91 76 L 92 75 L 95 75 L 97 73 L 97 69 L 96 68 L 96 63 L 95 62 L 95 60 L 94 59 L 91 59 L 90 58 Z M 80 58 "/>
<path style=" stroke:none;fill-rule:nonzero;fill:rgb(100%,100%,0%);fill-opacity:1;" d="M 80 58 L 79 59 L 78 59 L 77 60 L 77 61 L 76 62 L 76 66 L 77 67 L 77 69 L 78 70 L 78 71 L 83 76 L 91 76 L 92 75 L 95 75 L 97 73 L 97 69 L 96 68 L 96 63 L 95 62 L 95 60 L 94 59 L 91 59 L 90 58 Z M 80 58 "/>
<path style="fill:none;stroke-width:1;stroke-linecap:butt;stroke-linejoin:miter;stroke:rgb(100%,0%,0%);stroke-opacity:1;stroke-miterlimit:10;" d="M 248 47 L 247 48 L 247 63 L 250 66 L 251 66 L 252 67 L 255 67 L 255 47 Z M 248 47 "/>
<path style=" stroke:none;fill-rule:nonzero;fill:rgb(100%,100%,0%);fill-opacity:1;" d="M 248 47 L 247 48 L 247 63 L 250 66 L 251 66 L 252 67 L 255 67 L 255 47 Z M 248 47 "/>
<path style="fill:none;stroke-width:1;stroke-linecap:butt;stroke-linejoin:miter;stroke:rgb(100%,0%,0%);stroke-opacity:1;stroke-miterlimit:10;" d="M 26 38 L 25 39 L 24 39 L 23 40 L 22 40 L 21 41 L 21 51 L 22 52 L 22 54 L 23 55 L 23 56 L 24 57 L 24 59 L 25 60 L 25 62 L 27 64 L 28 64 L 29 65 L 35 65 L 36 64 L 37 64 L 38 63 L 38 61 L 39 60 L 42 60 L 44 58 L 44 54 L 43 53 L 43 52 L 42 51 L 42 41 L 40 39 L 35 39 L 34 38 Z M 26 38 "/>
<path style=" stroke:none;fill-rule:nonzero;fill:rgb(100%,100%,0%);fill-opacity:1;" d="M 26 38 L 25 39 L 24 39 L 23 40 L 22 40 L 21 41 L 21 51 L 22 52 L 22 54 L 23 55 L 23 56 L 24 57 L 24 59 L 25 60 L 25 62 L 27 64 L 28 64 L 29 65 L 35 65 L 36 64 L 37 64 L 38 63 L 38 61 L 39 60 L 42 60 L 44 58 L 44 54 L 43 53 L 43 52 L 42 51 L 42 41 L 40 39 L 35 39 L 34 38 Z M 26 38 "/>
<path style="fill:none;stroke-width:1;stroke-linecap:butt;stroke-linejoin:miter;stroke:rgb(100%,0%,0%);stroke-opacity:1;stroke-miterlimit:10;" d="M 193 36 L 192 37 L 192 50 L 194 52 L 194 53 L 195 54 L 196 54 L 197 55 L 202 55 L 203 56 L 208 56 L 210 54 L 211 54 L 212 53 L 214 53 L 217 50 L 217 46 L 216 45 L 216 43 L 215 42 L 215 39 L 214 38 L 213 38 L 211 36 Z M 193 36 "/>
<path style=" stroke:none;fill-rule:nonzero;fill:rgb(100%,100%,0%);fill-opacity:1;" d="M 193 36 L 192 37 L 192 50 L 194 52 L 194 53 L 195 54 L 196 54 L 197 55 L 202 55 L 203 56 L 208 56 L 210 54 L 211 54 L 212 53 L 214 53 L 217 50 L 217 46 L 216 45 L 216 43 L 215 42 L 215 39 L 214 38 L 213 38 L 211 36 Z M 193 36 "/>
<path style="fill:none;stroke-width:1;stroke-linecap:butt;stroke-linejoin:miter;stroke:rgb(100%,0%,0%);stroke-opacity:1;stroke-miterlimit:10;" d="M 92 20 L 91 21 L 90 21 L 88 23 L 88 27 L 91 30 L 91 31 L 92 32 L 97 32 L 98 31 L 101 31 L 102 30 L 105 30 L 106 29 L 107 29 L 108 28 L 108 24 L 107 23 L 105 23 L 102 20 Z M 92 20 "/>
<path style=" stroke:none;fill-rule:nonzero;fill:rgb(100%,100%,0%);fill-opacity:1;" d="M 92 20 L 91 21 L 90 21 L 88 23 L 88 27 L 91 30 L 91 31 L 92 32 L 97 32 L 98 31 L 101 31 L 102 30 L 105 30 L 106 29 L 107 29 L 108 28 L 108 24 L 107 23 L 105 23 L 102 20 Z M 92 20 "/>
<path style="fill:none;stroke-width:1;stroke-linecap:butt;stroke-linejoin:miter;stroke:rgb(100%,0%,0%);stroke-opacity:1;stroke-miterlimit:10;" d="M 144 19 L 143 20 L 141 20 L 140 21 L 136 21 L 135 22 L 135 26 L 134 27 L 134 36 L 135 37 L 138 37 L 139 38 L 140 38 L 141 39 L 149 39 L 151 37 L 151 36 L 154 33 L 154 25 L 155 24 L 155 20 L 154 19 Z M 144 19 "/>
<path style=" stroke:none;fill-rule:nonzero;fill:rgb(100%,100%,0%);fill-opacity:1;" d="M 144 19 L 143 20 L 141 20 L 140 21 L 136 21 L 135 22 L 135 26 L 134 27 L 134 36 L 135 37 L 138 37 L 139 38 L 140 38 L 141 39 L 149 39 L 151 37 L 151 36 L 154 33 L 154 25 L 155 24 L 155 20 L 154 19 Z M 144 19 "/>
<path style="fill:none;stroke-width:1;stroke-linecap:butt;stroke-linejoin:miter;stroke:rgb(100%,0%,0%);stroke-opacity:1;stroke-miterlimit:10;" d="M 237 0 L 237 2 L 238 3 L 238 9 L 240 11 L 241 11 L 242 12 L 244 12 L 245 13 L 252 13 L 255 10 L 255 0 Z M 237 0 "/>
<path style=" stroke:none;fill-rule:nonzero;fill:rgb(100%,100%,0%);fill-opacity:1;" d="M 237 0 L 237 2 L 238 3 L 238 9 L 240 11 L 241 11 L 242 12 L 244 12 L 245 13 L 252 13 L 255 10 L 255 0 Z M 237 0 "/>
<path style="fill:none;stroke-width:1;stroke-linecap:butt;stroke-linejoin:miter;stroke:rgb(100%,0%,0%);stroke-opacity:1;stroke-miterlimit:10;" d="M 173 0 L 174 1 L 176 1 L 178 3 L 178 4 L 179 5 L 179 6 L 182 9 L 183 9 L 184 10 L 191 10 L 192 9 L 193 9 L 194 8 L 197 8 L 198 7 L 198 6 L 199 5 L 199 0 Z M 173 0 "/>
<path style=" stroke:none;fill-rule:nonzero;fill:rgb(100%,100%,0%);fill-opacity:1;" d="M 173 0 L 174 1 L 176 1 L 178 3 L 178 4 L 179 5 L 179 6 L 182 9 L 183 9 L 184 10 L 191 10 L 192 9 L 193 9 L 194 8 L 197 8 L 198 7 L 198 6 L 199 5 L 199 0 Z M 173 0 "/>
<path style="fill:none;stroke-width:1;stroke-linecap:butt;stroke-linejoin:miter;stroke:rgb(100%,0%,0%);stroke-opacity:1;stroke-miterlimit:10;" d="M 50 0 L 50 4 L 51 5 L 56 5 L 57 6 L 59 6 L 60 7 L 75 7 L 76 6 L 78 6 L 79 5 L 80 5 L 82 3 L 82 0 L 72 0 L 71 1 L 64 1 L 63 0 Z M 50 0 "/>
<path style=" stroke:none;fill-rule:nonzero;fill:rgb(100%,100%,0%);fill-opacity:1;" d="M 50 0 L 50 4 L 51 5 L 56 5 L 57 6 L 59 6 L 60 7 L 75 7 L 76 6 L 78 6 L 79 5 L 80 5 L 82 3 L 82 0 L 72 0 L 71 1 L 64 1 L 63 0 Z M 50 0 "/>
<path style="fill:none;stroke-width:1;stroke-linecap:butt;stroke-linejoin:miter;stroke:rgb(100%,0%,0%);stroke-opacity:1;stroke-miterlimit:10;" d="M 15 0 L 14 1 L 14 5 L 16 7 L 16 9 L 15 10 L 14 10 L 13 11 L 12 11 L 10 13 L 10 18 L 11 19 L 19 19 L 21 17 L 21 16 L 24 13 L 24 1 L 23 0 Z M 15 0 "/>
<path style=" stroke:none;fill-rule:nonzero;fill:rgb(100%,100%,0%);fill-opacity:1;" d="M 15 0 L 14 1 L 14 5 L 16 7 L 16 9 L 15 10 L 14 10 L 13 11 L 12 11 L 10 13 L 10 18 L 11 19 L 19 19 L 21 17 L 21 16 L 24 13 L 24 1 L 23 0 Z M 15 0 "/>
</g>
</svg>
