<?xml version="1.0" encoding="UTF-8" standalone="no"?>
<!-- Created with Inkscape (http://www.inkscape.org/) -->

<svg
   xmlns:dc="http://purl.org/dc/elements/1.1/"
   xmlns:cc="http://creativecommons.org/ns#"
   xmlns:rdf="http://www.w3.org/1999/02/22-rdf-syntax-ns#"
   xmlns:svg="http://www.w3.org/2000/svg"
   xmlns="http://www.w3.org/2000/svg"
   xmlns:sodipodi="http://sodipodi.sourceforge.net/DTD/sodipodi-0.dtd"
   xmlns:inkscape="http://www.inkscape.org/namespaces/inkscape"
   id="svg3004"
   version="1.1"
   inkscape:version="0.48.4 r9939"
   width="744.095"
   height="1052.3625"
   xml:space="preserve"
   sodipodi:docname="test.pdf"><metadata
     id="metadata3010"><rdf:RDF><cc:Work
         rdf:about=""><dc:format>image/svg+xml</dc:format><dc:type
           rdf:resource="http://purl.org/dc/dcmitype/StillImage" /><dc:title></dc:title></cc:Work></rdf:RDF></metadata><defs
     id="defs3008" /><sodipodi:namedview
     pagecolor="#ffffff"
     bordercolor="#666666"
     borderopacity="1"
     objecttolerance="10"
     gridtolerance="10"
     guidetolerance="10"
     inkscape:pageopacity="0"
     inkscape:pageshadow="2"
     inkscape:window-width="640"
     inkscape:window-height="480"
     id="namedview3006"
     showgrid="false"
     inkscape:zoom="0.22425732"
     inkscape:cx="372.04749"
     inkscape:cy="704.54781"
     inkscape:window-x="56"
     inkscape:window-y="31"
     inkscape:window-maximized="0"
     inkscape:current-layer="g3012" /><g
     id="g3012"
     inkscape:groupmode="layer"
     inkscape:label="test"
     transform="matrix(1.25,0,0,-1.25,0,1052.3625)"><text
       transform="matrix(1,0,0,-1,102.884,701.148)"
       id="text3014"><tspan
         style="fill:#000000;fill-opacity:1;fill-rule:nonzero;stroke:none;font-family:CMBX12;font-variant:normal;font-weight:normal;font-size:17.2154;writing-mode:lr;-inkscape-font-specification:CMBX12"
         x="0 10.759625 21.51925 37.5209643 37.6672952 47.06518206 54.97565836 60.35547086"
         y="0"
         sodipodi:role="line"
         id="tspan3016">Sum´ario</tspan></text>
<text
       transform="matrix(1,0,0,-1,102.884,660.363)"
       id="text3018"><tspan
         style="fill:#000000;fill-opacity:1;fill-rule:nonzero;stroke:none;font-family:CMBX12;font-variant:normal;font-weight:normal;font-size:14.3462;writing-mode:lr;-inkscape-font-specification:CMBX12"
         x="0 22.1505328 26.6337203 28.4198222 32.9030097 39.1794722 48.1458472 52.6290347 380.4755702"
         y="0"
         sodipodi:role="line"
         id="tspan3020">It´ıtulo2</tspan></text>
<text
       transform="matrix(1,0,0,-1,102.884,634.211)"
       id="text3022"><tspan
         style="fill:#000000;fill-opacity:1;fill-rule:nonzero;stroke:none;font-family:CMBX12;font-variant:normal;font-weight:normal;font-size:11.9552;writing-mode:lr;-inkscape-font-specification:CMBX12"
         x="0 17.5562112 27.2698112 33.9946112 45.2026112 51.74091008 59.21291008 66.68491008 73.40971008 83.19862784 90.67062784 97.20892672 102.70234112 113.72384 119.86044416 127.33244416 131.06844416 136.29884416 143.02364416 148.51705856 155.05535744 155.05535744 160.93731584 161.03893504 167.57723392 178.78523392 186.25723392 197.46523392 202.69563392 208.83223808 215.93123584 221.16163584 381.82159104"
         y="0"
         sodipodi:role="line"
         id="tspan3024">1Comandosparaeditora¸c˜aodotexto2</tspan></text>
<text
       transform="matrix(1,0,0,-1,120.443,619.766)"
       id="text3026"><tspan
         style="fill:#000000;fill-opacity:1;fill-rule:nonzero;stroke:none;font-family:CMR12;font-variant:normal;font-weight:normal;font-size:11.9552;writing-mode:lr;-inkscape-font-specification:CMR12"
         x="0 5.85326592 9.10508032 26.92550144 33.42913024 39.93275904 46.43638784 51.05348608 56.25638912 56.25878016 61.4616832 61.45690112 67.31016704 77.71836416 86.94777856 96.17719296 105.40660736 114.63602176 123.86543616 133.09485056 142.32426496 151.55367936 160.78309376 170.01250816 179.24192256 188.47133696 197.70075136 206.93016576 216.15958016 225.38899456 234.61840896 243.84782336 253.07723776 262.30665216 271.53606656 280.76548096 289.99489536 299.22430976 308.45372416 317.68313856 326.91255296 336.14196736 345.37138176 365.13332736"
         y="0"
         sodipodi:role="line"
         id="tspan3028">1.1Subse¸c˜ao..............................2</tspan><tspan
         style="fill:#000000;fill-opacity:1;fill-rule:nonzero;stroke:none;font-family:CMR12;font-variant:normal;font-weight:normal;font-size:11.9552;writing-mode:lr;-inkscape-font-specification:CMR12"
         x="26.924 32.77726592 36.02908032 41.88234624 45.13416064 64.37725056 70.88087936 77.38450816 83.88813696 88.5052352 93.70813824 93.71052928 98.91343232 98.92060544 104.77387136 114.52453248 121.02816128 126.23106432 132.41190272 136.96444288 141.51698304 151.26764416 157.77127296 166.8715712 173.3752 183.1306432 192.89325952 197.51035776 204.01398656 210.51761536 215.1347136 220.33761664 220.32805248 225.53095552 225.53812864 231.39139456 243.84393088 253.07334528 262.30275968 271.53217408 280.76158848 289.99100288 299.22041728 308.44983168 317.67924608 326.90866048 336.13807488 345.36748928 365.12943488"
         y="14.446"
         sodipodi:role="line"
         id="tspan3030">1.1.1Subse¸c˜aodentrodeumasubse¸c˜ao............2</tspan><tspan
         style="fill:#000000;fill-opacity:1;fill-rule:nonzero;stroke:none;font-family:CMR12;font-variant:normal;font-weight:normal;font-size:11.9552;writing-mode:lr;-inkscape-font-specification:CMR12"
         x="173.786"
         y="526.339"
         id="tspan3032">1</tspan></text>
</g></svg>