<?xml version="1.0" encoding="UTF-8" standalone="no"?>
<!-- Created with Inkscape (http://www.inkscape.org/) -->

<svg
   xmlns:dc="http://purl.org/dc/elements/1.1/"
   xmlns:cc="http://creativecommons.org/ns#"
   xmlns:rdf="http://www.w3.org/1999/02/22-rdf-syntax-ns#"
   xmlns:svg="http://www.w3.org/2000/svg"
   xmlns="http://www.w3.org/2000/svg"
   xmlns:sodipodi="http://sodipodi.sourceforge.net/DTD/sodipodi-0.dtd"
   xmlns:inkscape="http://www.inkscape.org/namespaces/inkscape"
   id="svg3087"
   version="1.1"
   inkscape:version="0.48.4 r9939"
   width="744.095"
   height="1052.3625"
   xml:space="preserve"
   sodipodi:docname="test.pdf"><metadata
     id="metadata3093"><rdf:RDF><cc:Work
         rdf:about=""><dc:format>image/svg+xml</dc:format><dc:type
           rdf:resource="http://purl.org/dc/dcmitype/StillImage" /><dc:title></dc:title></cc:Work></rdf:RDF></metadata><defs
     id="defs3091" /><sodipodi:namedview
     pagecolor="#ffffff"
     bordercolor="#666666"
     borderopacity="1"
     objecttolerance="10"
     gridtolerance="10"
     guidetolerance="10"
     inkscape:pageopacity="0"
     inkscape:pageshadow="2"
     inkscape:window-width="640"
     inkscape:window-height="480"
     id="namedview3089"
     showgrid="false"
     inkscape:zoom="0.22425732"
     inkscape:cx="372.04749"
     inkscape:cy="526.18127"
     inkscape:window-x="49"
     inkscape:window-y="24"
     inkscape:window-maximized="0"
     inkscape:current-layer="g3095" /><g
     id="g3095"
     inkscape:groupmode="layer"
     inkscape:label="test"
     transform="matrix(1.25,0,0,-1.25,0,1052.3625)"><text
       transform="matrix(1,0,0,-1,102.884,701.148)"
       id="text3097"><tspan
         style="fill:#000000;fill-opacity:1;fill-rule:nonzero;stroke:none;font-family:CMBX12;font-variant:normal;font-weight:normal;font-size:17.2154;writing-mode:lr;-inkscape-font-specification:CMBX12"
         x="0 12.6963575 22.11145976 30.02193606 37.55367356 52.84611338"
         y="0"
         sodipodi:role="line"
         id="tspan3099">ParteI</tspan></text>
<text
       transform="matrix(1,0,0,-1,102.884,671.26)"
       id="text3101"><tspan
         style="fill:#000000;fill-opacity:1;fill-rule:nonzero;stroke:none;font-family:CMBX12;font-variant:normal;font-weight:normal;font-size:24.7871;writing-mode:lr;-inkscape-font-specification:CMBX12"
         x="0 7.74596875 10.8567498 18.60271855 29.4470748 44.9390123 52.68498105"
         y="0"
         sodipodi:role="line"
         id="tspan3103">t´ıtulo</tspan></text>
<text
       transform="matrix(1,0,0,-1,102.884,633.9)"
       id="text3105"><tspan
         style="fill:#000000;fill-opacity:1;fill-rule:nonzero;stroke:none;font-family:CMBX12;font-variant:normal;font-weight:normal;font-size:17.2154;writing-mode:lr;-inkscape-font-specification:CMBX12"
         x="0 29.0509875 43.0385 52.7221625 68.8616 78.27670226 89.03632726 99.79595226 109.47961476 123.57558428 134.33520928 143.75031154 151.66078784 167.5316651 176.36832992 187.12795492 192.50776742 200.03950492 209.72316742 217.63364372 227.04874598 227.04874598 235.51872278 235.64783828 245.06294054 261.20237804 271.96200304 288.10144054 295.63317804 304.46984286 314.69234738 322.22408488"
         y="0"
         sodipodi:role="line"
         id="tspan3107">1Comandosparaeditora¸c˜aodotexto</tspan></text>
<text
       transform="matrix(1,0,0,-1,102.884,607.615)"
       id="text3109"><tspan
         style="fill:#000000;fill-opacity:1;fill-rule:nonzero;stroke:none;font-family:CMR12;font-variant:normal;font-weight:normal;font-size:11.9552;writing-mode:lr;-inkscape-font-specification:CMR12"
         x="0 8.7751168 13.97801984 18.59511808 23.21221632 31.09308416 36.2959872 42.47443456 47.6773376 57.4327808 63.9364096 67.188224 75.73140992 85.48685312 91.34011904 95.95721728 100.50975744 105.0622976 110.91556352 115.46810368 120.67100672 130.42644992 136.27971584 143.57477888 148.77768192 154.63094784 164.38639104 172.91762176 179.42125056 184.0383488 189.89161472 197.13407488 202.9873408 210.28240384 215.48530688 221.3385728 231.094016 236.94728192 243.45091072 249.95453952 255.80780544 263.10286848 269.60649728 275.4597632 280.01230336 288.55548928 293.75839232 300.26202112 303.51383552 308.06637568 313.9196416 318.47218176 324.32544768 324.31588352 329.51878656 329.52595968 335.3792256 343.91045632 350.41408512 358.95727104 363.5098112 368.71271424 374.8911616 379.44370176 385.29696768"
         y="0"
         sodipodi:role="line"
         id="tspan3111">Nesseexemplomostraremoscomousaroscomandosparaeditora¸c˜aodotexto,</tspan><tspan
         style="fill:#000000;fill-opacity:1;fill-rule:nonzero;stroke:none;font-family:CMR12;font-variant:normal;font-weight:normal;font-size:11.9552;writing-mode:lr;-inkscape-font-specification:CMR12"
         x="0 5.20290304 11.05616896 20.81161216 30.56227328 37.38869248 43.2419584 51.70384896 56.906752 63.08519936 68.2881024 78.0435456 84.5471744 87.7989888 97.54964992 102.75255296 107.3696512 111.98674944 121.73741056 126.3545088 131.55741184 131.55980288 136.76270592 136.76987904 142.62314496 148.47641088"
         y="14.446"
         sodipodi:role="line"
         id="tspan3113">comoporexemploessase¸c˜ao.</tspan></text>
<text
       transform="matrix(1,0,0,-1,102.884,558.507)"
       id="text3115"><tspan
         style="fill:#000000;fill-opacity:1;fill-rule:nonzero;stroke:none;font-family:CMBX12;font-variant:normal;font-weight:normal;font-size:14.3462;writing-mode:lr;-inkscape-font-specification:CMBX12"
         x="0 8.0697375 12.552925 36.7621375 45.7285125 54.6948875 63.6612625 70.02810606 77.39201052 77.39201052 84.45034092 84.55793742 92.4038742"
         y="0"
         sodipodi:role="line"
         id="tspan3117">1.1Subse¸c˜ao</tspan></text>
<text
       transform="matrix(1,0,0,-1,102.884,536.341)"
       id="text3119"><tspan
         style="fill:#000000;fill-opacity:1;fill-rule:nonzero;stroke:none;font-family:CMR12;font-variant:normal;font-weight:normal;font-size:11.9552;writing-mode:lr;-inkscape-font-specification:CMR12"
         x="0 8.7751168 14.62838272 20.48164864 25.0341888 34.78484992 39.98775296 44.54029312 47.79210752 53.64537344 63.40081664 69.25408256 77.7805312 84.28416 94.0396032 103.79026432 108.40736256 114.91099136 121.41462016 126.0317184 131.23462144 131.23701248 136.43991552 136.43513344 142.28839936 148.14166528"
         y="0"
         sodipodi:role="line"
         id="tspan3121">Agoracriamosumasubse¸c˜ao.</tspan></text>
<text
       transform="matrix(1,0,0,-1,102.884,505.166)"
       id="text3123"><tspan
         style="fill:#000000;fill-opacity:1;fill-rule:nonzero;stroke:none;font-family:CMBX12;font-variant:normal;font-weight:normal;font-size:11.9552;writing-mode:lr;-inkscape-font-specification:CMBX12"
         x="0 6.7248 10.4608 17.1856 20.9216 41.096 48.568 56.04 63.512 68.81771776 74.95432192 74.95432192 80.83628032 80.93789952 87.4761984 98.6841984 106.1561984 112.29280256 119.38223616 124.61263616 130.10605056 141.31405056 148.78605056 159.40585472 166.87785472 178.08585472 189.1073536 194.41307136 201.88507136 209.35707136 214.66278912 220.79939328 220.79939328 226.69330688 226.78297088 233.32126976"
         y="0"
         sodipodi:role="line"
         id="tspan3125">1.1.1Subse¸c˜aodentrodeumasubse¸c˜ao</tspan></text>
<text
       transform="matrix(1,0,0,-1,102.884,482.999)"
       id="text3127"><tspan
         style="fill:#000000;fill-opacity:1;fill-rule:nonzero;stroke:none;font-family:CMR12;font-variant:normal;font-weight:normal;font-size:11.9552;writing-mode:lr;-inkscape-font-specification:CMR12"
         x="0 8.7751168 14.62838272 20.48164864 25.0341888 34.78484992 39.33739008 44.54029312 54.29573632 60.14900224 68.67545088 75.17907968 84.93452288 94.685184 99.30228224 105.80591104 112.30953984 116.92663808 122.12954112 122.13193216 127.3348352 127.33005312 133.18331904 142.93398016 149.43760896 154.640512 160.8213504 165.37389056 169.92643072 179.67709184 186.18072064 195.29297408 201.14624 207.6498688 212.20240896 216.75494912 222.60821504"
         y="0"
         sodipodi:role="line"
         id="tspan3129">Agoratemosumasubse¸c˜aodentrodeoutra.</tspan></text>
<text
       transform="matrix(1,0,0,-1,102.884,451.824)"
       id="text3131"><tspan
         style="fill:#000000;fill-opacity:1;fill-rule:nonzero;stroke:none;font-family:CMBX12;font-variant:normal;font-weight:normal;font-size:11.9552;writing-mode:lr;-inkscape-font-specification:CMBX12"
         x="0 8.81696 15.35525888 20.75303168 20.84269568 27.38099456 34.10579456 39.59920896 46.13750784 50.24651008"
         y="0"
         sodipodi:role="line"
         id="tspan3133">Par´agrafo</tspan></text>
<text
       transform="matrix(1,0,0,-1,171.564,451.824)"
       id="text3135"><tspan
         style="fill:#000000;fill-opacity:1;fill-rule:nonzero;stroke:none;font-family:CMR12;font-variant:normal;font-weight:normal;font-size:11.9552;writing-mode:lr;-inkscape-font-specification:CMR12"
         x="0 8.7751168 14.95356416 21.45719296 28.60640256 33.15894272 38.36184576 48.11728896 53.97055488 62.49700352 69.00063232 82.65347072 89.15709952 95.01036544 99.5629056 99.55812352 105.41138944 111.26465536 115.81719552 121.67046144 125.24745728 131.1007232 135.71782144"
         y="0"
         sodipodi:role="line"
         id="tspan3137">Aquitemosumpar´agrafos.</tspan></text>
<text
       transform="matrix(1,0,0,-1,120.443,420.649)"
       id="text3139"><tspan
         style="fill:#000000;fill-opacity:1;fill-rule:nonzero;stroke:none;font-family:CMBX12;font-variant:normal;font-weight:normal;font-size:11.9552;writing-mode:lr;-inkscape-font-specification:CMBX12"
         x="0 7.472 14.944 22.416 29.888 36.42629888 41.82407168 41.91373568 48.45203456 55.17683456 60.67024896 67.20854784 71.31755008"
         y="0"
         sodipodi:role="line"
         id="tspan3141">Subpar´agrafo</tspan></text>
<text
       transform="matrix(1,0,0,-1,210.197,420.649)"
       id="text3143"><tspan
         style="fill:#000000;fill-opacity:1;fill-rule:nonzero;stroke:none;font-family:CMR12;font-variant:normal;font-weight:normal;font-size:11.9552;writing-mode:lr;-inkscape-font-specification:CMR12"
         x="0 11.86194944 18.36557824 24.21884416 28.77138432 38.53400064 45.03762944 51.54125824 57.39452416 60.64633856 63.89815296 69.101056 74.95432192 83.40425728 87.95679744 93.15970048 102.91514368 108.7684096 117.28290304 123.78653184 137.45132544 142.06842368 148.57205248 155.06372608 161.56735488 167.4206208 171.97316096 171.98033408 177.8336 183.68686592 188.23940608 194.092672 197.66966784 203.52293376"
         y="0"
         sodipodi:role="line"
         id="tspan3145">Eparafnalizartemosumsubpar´agrafo.</tspan><tspan
         style="fill:#000000;fill-opacity:1;fill-rule:nonzero;stroke:none;font-family:CMR12;font-variant:normal;font-weight:normal;font-size:11.9552;writing-mode:lr;-inkscape-font-specification:CMR12"
         x="84.032"
         y="327.222"
         id="tspan3147">2</tspan></text>
</g></svg>